<svg width="70" height="293" viewBox="0 0 70 293" fill="none" xmlns="http://www.w3.org/2000/svg">
<path d="M70 25.9591L45.2586 25.9591L0.999997 0L0.999998 18.5976L28.4029 34.6767L0.999999 50.7558L1 71L44.9629 45.1378H70V25.9591Z" fill="white"/>
<path fill-rule="evenodd" clip-rule="evenodd" d="M3 107.367L3 139H70V107.367C70 100.04 68.6281 93.5416 65.8843 87.8712C63.1405 82.2009 59.2481 77.8047 54.2071 74.6828C49.1662 71.561 43.2638 70 36.5 70C29.7362 70 23.8338 71.561 18.7929 74.6828C13.7519 77.8047 9.85952 82.2009 7.11572 87.8712C4.3719 93.5416 3 100.04 3 107.367ZM49.9957 94.3698C53.25 97.8103 54.8771 102.398 54.8771 108.132V120.078H18.1229L18.1229 108.132C18.1229 102.398 19.75 97.8103 23.0043 94.3698C26.2586 90.8657 30.7571 89.1136 36.5 89.1136C42.2429 89.1136 46.7414 90.8657 49.9957 94.3698Z" fill="white"/>
<path fill-rule="evenodd" clip-rule="evenodd" d="M69.888 185.611C69.888 192.715 68.384 199.115 65.376 204.811C62.368 210.443 58.208 214.891 52.896 218.155C47.584 221.355 41.6 222.955 34.944 222.955C28.288 222.955 22.304 221.355 16.992 218.155C11.68 214.891 7.52 210.443 4.512 204.811C1.504 199.115 0 192.715 0 185.611C-1.94288e-06 178.507 1.504 172.139 4.512 166.507C7.52 160.811 11.68 156.363 16.992 153.163C22.304 149.899 28.288 148.267 34.944 148.267C41.6 148.267 47.584 149.899 52.896 153.163C58.208 156.363 62.368 160.811 65.376 166.507C68.384 172.139 69.888 178.507 69.888 185.611ZM54.144 185.611C54.144 182.219 53.344 179.147 51.744 176.395C50.144 173.643 47.904 171.467 45.024 169.867C42.08 168.267 38.72 167.467 34.944 167.467C31.168 167.467 27.84 168.267 24.96 169.867C22.016 171.467 19.744 173.643 18.144 176.395C16.544 179.147 15.744 182.219 15.744 185.611C15.744 189.003 16.544 192.075 18.144 194.827C19.744 197.579 22.016 199.755 24.96 201.355C27.84 202.955 31.168 203.755 34.944 203.755C38.72 203.755 42.08 202.955 45.024 201.355C47.904 199.755 50.144 197.579 51.744 194.827C53.344 192.075 54.144 189.003 54.144 185.611Z" fill="white"/>
<path fill-rule="evenodd" clip-rule="evenodd" d="M40.5271 232.267C37.57 234.445 35.4014 237.456 34.0214 241.3C32.51 238.417 30.4729 236.207 27.91 234.67C25.2814 233.068 22.3243 232.267 19.0386 232.267C13.5186 232.267 9.14857 234.51 5.92857 238.994C2.64286 243.478 0.999998 250.013 0.999999 258.598L1 293H70V256.676C70 247.707 68.3571 240.852 65.0714 236.111C61.7857 231.37 57.12 229 51.0743 229C46.9343 229 43.4186 230.089 40.5271 232.267ZM28.4029 274.165H15.0957V261.096C15.0957 254.69 17.2971 251.487 21.7 251.487C26.1686 251.487 28.4029 254.69 28.4029 261.096L28.4029 274.165ZM48.9057 248.219C53.5714 248.219 55.9043 251.551 55.9043 258.213V274.165H41.9071V258.213C41.9071 251.551 44.24 248.219 48.9057 248.219Z" fill="white"/>
</svg>
