<svg width="41" height="41" viewBox="0 0 41 41" fill="none" xmlns="http://www.w3.org/2000/svg">
<path fill-rule="evenodd" clip-rule="evenodd" d="M36.3736 4.62636C34.9053 3.15798 32.5245 3.15798 31.0562 4.62636L21.7347 13.9478L20.3896 15.2438C16.0396 19.4347 9.14097 19.3915 4.84379 15.1464L6.0824 13.8926L4.83617 15.1389L2.13376 12.4364C-0.711251 9.59144 -0.711253 4.97877 2.13376 2.13376C4.97876 -0.711251 9.59144 -0.711252 12.4364 2.13376L20.5 10.1973L28.5636 2.13376C31.4086 -0.711253 36.0212 -0.711251 38.8662 2.13376C41.7113 4.97877 41.7113 9.59144 38.8662 12.4364L30.8027 20.5L38.8662 28.5636C41.7113 31.4086 41.7113 36.0212 38.8662 38.8662C36.0212 41.7113 31.4086 41.7113 28.5636 38.8662L20.5 30.8027L12.4364 38.8662C9.59144 41.7113 4.97877 41.7113 2.13376 38.8662C-0.711253 36.0212 -0.711252 31.4086 2.13376 28.5636L4.83139 25.8659C9.1049 21.5289 16.0865 21.4793 20.4213 25.7564L21.7463 27.0637L31.0562 36.3736C32.5245 37.842 34.9053 37.842 36.3736 36.3736C37.842 34.9053 37.842 32.5245 36.3736 31.0562L25.8175 20.5L36.3736 9.94384C37.842 8.47546 37.842 6.09474 36.3736 4.62636ZM6.08242 27.1074L7.32877 28.3538L4.62636 31.0562C3.15798 32.5245 3.15798 34.9053 4.62636 36.3736C6.09474 37.842 8.47546 37.842 9.94384 36.3736L17.999 28.3185L17.9455 28.2656C14.9961 25.3554 10.245 25.3904 7.33874 28.3437L6.08242 27.1074ZM17.984 12.6665L9.94384 4.62636C8.47546 3.15798 6.09474 3.15798 4.62636 4.62636C3.15798 6.09474 3.15798 8.47546 4.62636 9.94384L7.32475 12.6422C10.2613 15.5394 14.9726 15.5677 17.9438 12.7052L17.984 12.6665Z" fill="#D2D2FF"/>
</svg>
