<svg width="247" height="40" viewBox="0 0 247 40" fill="none" xmlns="http://www.w3.org/2000/svg">
<path d="M189.421 10.2969C191.111 10.2969 192.616 10.6402 193.936 11.3267C195.283 11.9868 196.339 13.0167 197.105 14.4162C197.871 15.7893 198.253 17.5584 198.253 19.7237V31.9232H192.075V20.6743C192.075 18.958 191.692 17.6905 190.926 16.8719C190.187 16.0533 189.13 15.644 187.757 15.644C186.78 15.644 185.896 15.8553 185.103 16.2778C184.338 16.6739 183.73 17.2944 183.281 18.1394C182.859 18.9844 182.648 20.067 182.648 21.3873V31.9232H176.469V10.6137H182.37V16.5154L181.261 14.733C182.027 13.3071 183.123 12.2113 184.549 11.4455C185.975 10.6798 187.599 10.2969 189.421 10.2969Z" fill="#D2D2FF"/>
<path d="M160.654 32.24C158.383 32.24 156.363 31.7647 154.594 30.8141C152.851 29.8635 151.465 28.5696 150.435 26.9325C149.431 25.2689 148.93 23.3809 148.93 21.2685C148.93 19.1296 149.431 17.2416 150.435 15.6044C151.465 13.9409 152.851 12.647 154.594 11.7228C156.363 10.7722 158.383 10.2969 160.654 10.2969C162.898 10.2969 164.905 10.7722 166.674 11.7228C168.444 12.647 169.83 13.9277 170.833 15.5648C171.837 17.202 172.338 19.1032 172.338 21.2685C172.338 23.3809 171.837 25.2689 170.833 26.9325C169.83 28.5696 168.444 29.8635 166.674 30.8141C164.905 31.7647 162.898 32.24 160.654 32.24ZM160.654 27.1701C161.684 27.1701 162.608 26.9325 163.426 26.4572C164.245 25.9819 164.892 25.3085 165.367 24.4371C165.843 23.5393 166.08 22.4831 166.08 21.2685C166.08 20.0274 165.843 18.9712 165.367 18.0998C164.892 17.2284 164.245 16.555 163.426 16.0797C162.608 15.6044 161.684 15.3668 160.654 15.3668C159.624 15.3668 158.7 15.6044 157.881 16.0797C157.063 16.555 156.403 17.2284 155.901 18.0998C155.425 18.9712 155.188 20.0274 155.188 21.2685C155.188 22.4831 155.425 23.5393 155.901 24.4371C156.403 25.3085 157.063 25.9819 157.881 26.4572C158.7 26.9325 159.624 27.1701 160.654 27.1701Z" fill="#D2D2FF"/>
<path d="M136.101 32.24C133.672 32.24 131.533 31.7647 129.685 30.8141C127.863 29.8635 126.45 28.5696 125.447 26.9325C124.443 25.2689 123.941 23.3809 123.941 21.2685C123.941 19.1296 124.43 17.2416 125.407 15.6044C126.41 13.9409 127.77 12.647 129.487 11.7228C131.203 10.7722 133.144 10.2969 135.309 10.2969C137.395 10.2969 139.27 10.7458 140.933 11.6436C142.623 12.515 143.957 13.7824 144.934 15.446C145.911 17.0831 146.399 19.0504 146.399 21.3477C146.399 21.5853 146.386 21.8626 146.36 22.1795C146.333 22.4699 146.307 22.7472 146.281 23.0112H128.972V19.4068H143.033L140.656 20.4763C140.656 19.3672 140.432 18.4034 139.983 17.5849C139.534 16.7663 138.913 16.1325 138.121 15.6836C137.329 15.2083 136.405 14.9707 135.349 14.9707C134.292 14.9707 133.355 15.2083 132.536 15.6836C131.744 16.1325 131.124 16.7795 130.675 17.6245C130.226 18.443 130.002 19.4201 130.002 20.5555V21.5061C130.002 22.668 130.252 23.6978 130.754 24.5956C131.282 25.467 132.008 26.1403 132.933 26.6156C133.883 27.0645 134.992 27.289 136.26 27.289C137.395 27.289 138.385 27.1173 139.23 26.774C140.102 26.4308 140.894 25.9159 141.607 25.2293L144.894 28.7941C143.917 29.9031 142.689 30.7613 141.211 31.3686C139.732 31.9496 138.029 32.24 136.101 32.24Z" fill="#D2D2FF"/>
<path d="M110.938 10.2975C112.628 10.2975 114.133 10.6407 115.454 11.3273C116.8 11.9874 117.857 13.0173 118.622 14.4168C119.388 15.7899 119.771 17.559 119.771 19.7243V31.9238H113.592V20.6749C113.592 18.9585 113.209 17.6911 112.443 16.8725C111.704 16.0539 110.648 15.6446 109.275 15.6446C108.298 15.6446 107.413 15.8559 106.621 16.2784C105.855 16.6744 105.248 17.295 104.799 18.14C104.377 18.9849 104.165 20.0676 104.165 21.3879V31.9238H97.9863V2.53418H104.165V16.516L102.779 14.7336C103.545 13.3077 104.641 12.2119 106.066 11.4461C107.492 10.6803 109.116 10.2975 110.938 10.2975Z" fill="#D2D2FF"/>
<path d="M89.4871 32.2411C86.9786 32.2411 85.0246 31.6073 83.625 30.3399C82.2255 29.046 81.5258 27.1316 81.5258 24.5966V5.90137H87.7047V24.5174C87.7047 25.4152 87.9424 26.115 88.4177 26.6167C88.893 27.092 89.5399 27.3296 90.3585 27.3296C91.3355 27.3296 92.1673 27.0656 92.8538 26.5374L94.5174 30.8944C93.8837 31.3433 93.1179 31.6866 92.2201 31.9242C91.3487 32.1355 90.4377 32.2411 89.4871 32.2411ZM78.2383 15.8431V11.0901H93.0123V15.8431H78.2383Z" fill="#D2D2FF"/>
<path d="M66.3387 10.2969C68.0287 10.2969 69.5338 10.6402 70.8541 11.3267C72.2008 11.9868 73.257 13.0167 74.0228 14.4162C74.7886 15.7893 75.1714 17.5584 75.1714 19.7237V31.9232H68.9925V20.6743C68.9925 18.958 68.6096 17.6905 67.8439 16.8719C67.1045 16.0533 66.0483 15.644 64.6752 15.644C63.6982 15.644 62.8136 15.8553 62.0214 16.2778C61.2556 16.6739 60.6483 17.2944 60.1994 18.1394C59.7769 18.9844 59.5657 20.067 59.5657 21.3873V31.9232H53.3867V10.6137H59.2884V16.5154L58.1794 14.733C58.9451 13.3071 60.041 12.2113 61.4669 11.4455C62.8928 10.6798 64.5167 10.2969 66.3387 10.2969Z" fill="#D2D2FF"/>
<path d="M42.0118 31.9232V27.7643L41.6157 26.8533V19.4068C41.6157 18.0866 41.2064 17.0567 40.3879 16.3174C39.5957 15.578 38.3678 15.2083 36.7043 15.2083C35.5688 15.2083 34.4466 15.3932 33.3375 15.7629C32.2549 16.1061 31.3307 16.5814 30.5649 17.1888L28.3469 12.8714C29.5087 12.0529 30.9082 11.4191 32.5454 10.9702C34.1825 10.5213 35.8461 10.2969 37.5361 10.2969C40.784 10.2969 43.3057 11.0626 45.1013 12.5942C46.8969 14.1257 47.7947 16.5154 47.7947 19.7633V31.9232H42.0118ZM35.516 32.24C33.8525 32.24 32.4265 31.9628 31.2383 31.4083C30.05 30.8273 29.139 30.0484 28.5053 29.0713C27.8716 28.0943 27.5547 26.9985 27.5547 25.7838C27.5547 24.5164 27.8584 23.4073 28.4657 22.4567C29.0994 21.5061 30.0896 20.7667 31.4363 20.2386C32.783 19.6841 34.539 19.4068 36.7043 19.4068H42.3683V23.0112H37.3776C35.9253 23.0112 34.9219 23.2489 34.3674 23.7242C33.8393 24.1995 33.5752 24.7936 33.5752 25.5066C33.5752 26.2987 33.8789 26.9325 34.4862 27.4078C35.1199 27.8567 35.9781 28.0811 37.0608 28.0811C38.0906 28.0811 39.0148 27.8435 39.8334 27.3682C40.6519 26.8665 41.2461 26.1403 41.6157 25.1897L42.5663 28.0415C42.1174 29.4146 41.2989 30.4576 40.1106 31.1706C38.9224 31.8836 37.3908 32.24 35.516 32.24Z" fill="#D2D2FF"/>
<path d="M0.947266 31.9233V4.19727H12.9487C15.4308 4.19727 17.5697 4.60655 19.3653 5.42513C21.1609 6.2173 22.5472 7.36595 23.5242 8.87108C24.5012 10.3762 24.9897 12.1718 24.9897 14.2578C24.9897 16.3175 24.5012 18.0999 23.5242 19.605C22.5472 21.1101 21.1609 22.272 19.3653 23.0906C17.5697 23.8827 15.4308 24.2788 12.9487 24.2788H4.51204L7.36386 21.3874V31.9233H0.947266ZM7.36386 22.1003L4.51204 19.0505H12.5922C14.5726 19.0505 16.0513 18.628 17.0284 17.783C18.0054 16.938 18.4939 15.763 18.4939 14.2578C18.4939 12.7263 18.0054 11.5381 17.0284 10.6931C16.0513 9.84809 14.5726 9.4256 12.5922 9.4256H4.51204L7.36386 6.37574V22.1003Z" fill="#D2D2FF"/>
<path fill-rule="evenodd" clip-rule="evenodd" d="M242.533 4.46728C241.115 3.04939 238.816 3.04939 237.398 4.46728L228.397 13.4682L227.099 14.7196C222.898 18.7664 216.237 18.7247 212.087 14.6256L213.283 13.4149L212.08 14.6183L209.471 12.0088C206.723 9.26162 206.723 4.80756 209.471 2.06038C212.218 -0.686793 216.672 -0.686794 219.419 2.06038L227.205 9.84666L234.992 2.06038C237.739 -0.686796 242.193 -0.686793 244.94 2.06038C247.687 4.80756 247.687 9.26162 244.94 12.0088L237.154 19.7951L244.94 27.5813C247.687 30.3285 247.687 34.7826 244.94 37.5298C242.193 40.2769 237.739 40.2769 234.991 37.5298L227.205 29.7435L219.419 37.5298C216.672 40.2769 212.218 40.2769 209.471 37.5298C206.723 34.7826 206.723 30.3285 209.471 27.5813L212.075 24.9765C216.202 20.7886 222.944 20.7407 227.129 24.8707L228.409 26.1331L237.398 35.1229C238.816 36.5408 241.115 36.5408 242.533 35.1229C243.951 33.705 243.951 31.4061 242.533 29.9882L232.34 19.7951L242.533 9.6019C243.951 8.18402 243.951 5.88516 242.533 4.46728ZM213.283 26.1753L214.487 27.3788L211.877 29.9882C210.46 31.4061 210.46 33.705 211.877 35.1229C213.295 36.5408 215.594 36.5408 217.012 35.1229L224.79 27.3447L224.739 27.2936C221.891 24.4835 217.303 24.5173 214.497 27.3691L213.283 26.1753ZM224.776 12.2309L217.012 4.46728C215.594 3.04939 213.295 3.04939 211.877 4.46728C210.46 5.88517 210.46 8.18402 211.877 9.6019L214.483 12.2075C217.319 15.0051 221.868 15.0324 224.737 12.2683L224.776 12.2309Z" fill="#D2D2FF"/>
</svg>
