<svg width="184" height="59" viewBox="0 0 184 59" fill="none" xmlns="http://www.w3.org/2000/svg">
<path d="M76.9512 29.5193L85.2199 6.98047H81.7524L75.7065 23.829L70.0162 6.98047H63.748L71.6166 29.5193H76.9512Z" fill="white"/>
<path d="M93.2221 6.98047H87.3096V29.4304H93.2221V6.98047Z" fill="white"/>
<path d="M102.735 10.2257V29.4304H108.648V10.2257C111.671 10.3146 113.271 10.6258 115.005 11.2926L115.538 11.5149V6.98047H95.8003V11.5149L96.3337 11.2926C97.9786 10.6703 99.3567 10.3591 102.735 10.2257Z" fill="white"/>
<path d="M129.231 6.35742L123.141 7.73553V9.42483L116.028 29.4297H119.54L121.674 23.3393H128.92L131.009 29.4297H137.277L129.231 6.35742ZM127.897 20.2719H122.741L125.408 12.4922L127.897 20.2719Z" fill="white"/>
<path d="M154.97 24.9404L154.437 25.1627C152.837 25.8295 151.281 26.1851 147.546 26.1851H145.235V6.98047H139.322V29.4304H154.926V24.9404H154.97Z" fill="white"/>
<path d="M163.461 6.98047H157.549V29.4304H163.461V6.98047Z" fill="white"/>
<path d="M176.22 15.159C172.841 14.1365 171.774 13.3808 171.774 11.9582C171.774 10.5357 173.197 9.51319 175.242 9.51319C177.198 9.51319 178.887 10.0911 180.443 11.3359L181.732 12.3583L183.199 8.04617L182.844 7.9128C180.621 7.0237 177.998 6.49023 175.553 6.49023C169.507 6.49023 166.795 10.0467 166.795 13.6031C166.795 17.8263 170.218 19.4267 173.908 20.5381C177.687 21.6939 178.798 22.4941 178.798 24.0945C178.798 25.4726 177.731 26.8952 174.753 26.8952C172.619 26.8952 170.93 26.1395 168.84 24.2723L168.396 23.8722L166.884 28.1399L167.24 28.2733C169.507 29.2958 172.263 29.9182 174.531 29.9182C181.066 29.9182 184 26.1839 184 22.4497C183.955 18.2709 180.977 16.5371 176.22 15.159Z" fill="white"/>
<path d="M82.0197 44.9002C84.0646 44.1445 85.2649 42.5886 85.2649 40.7659C85.2649 39.6545 84.9092 38.721 84.2424 38.0541C83.0866 36.9427 81.0861 36.4093 78.0187 36.4537L71.7061 36.5871V54.058L77.663 54.1914C77.7964 54.1914 77.9742 54.1914 78.1076 54.1914C81.175 54.1914 83.3533 53.569 84.6425 52.3243C85.4427 51.5241 85.8872 50.4571 85.8872 49.2124C85.8872 47.0785 84.5091 45.5671 82.0197 44.9002ZM77.4852 43.9667H76.3294V38.9877H77.174C79.219 38.9877 80.4637 39.9212 80.4637 41.5661C80.4637 42.9887 79.2634 43.9667 77.4852 43.9667ZM80.9527 49.0346C80.9527 50.6794 79.6191 51.6574 77.5297 51.6574H76.3294V46.3228H77.0851C79.3968 46.3228 80.9527 47.4342 80.9527 49.0346Z" fill="white"/>
<path d="M92.2 37.1197V38.4533L86.6431 54.1016H89.3993L91.0441 49.3449H96.7344L98.3793 54.1016H103.314L97.0011 36.0527L92.2 37.1197ZM95.8897 46.9443H91.8443L93.9337 40.8539L95.8897 46.9443Z" fill="white"/>
<path d="M111.271 51.5669H109.493V36.541H104.87V54.1008H117.095V50.5889L116.65 50.7667C115.406 51.3002 114.205 51.5669 111.271 51.5669Z" fill="white"/>
<path d="M123.052 37.1197V38.4533L117.495 54.1016H120.251L121.896 49.3449H127.586L129.231 54.1016H134.166L127.853 36.0527L123.052 37.1197ZM126.742 46.9443H122.696L124.786 40.8539L126.742 46.9443Z" fill="white"/>
<path d="M147.902 48.1444L139.989 36.4082L135.633 36.8083V54.1014H138.211V42.054L146.48 54.2792L150.481 53.8791V36.5416H147.902V48.1444Z" fill="white"/>
<path d="M162.795 38.5876C164.574 38.5876 166.13 39.2989 167.641 40.8548L167.952 41.166L169.508 38.0097L169.241 37.8763C167.197 36.676 165.063 36.1426 162.529 36.1426C156.838 36.1426 152.749 40.0991 152.749 45.5226C152.749 51.0795 156.527 54.5026 162.573 54.5026C164.974 54.5026 167.108 53.8802 168.752 52.6355L168.975 52.4577L167.686 50.2793L167.419 50.5016C166.218 51.4796 164.796 52.0131 163.107 52.0131C159.639 52.0131 157.639 49.4792 157.639 45.0781C157.683 41.1216 159.639 38.5876 162.795 38.5876Z" fill="white"/>
<path d="M171.642 54.1013H183.956V50.5893L183.511 50.7672C182.222 51.3006 181.022 51.5674 178.132 51.5674H176.221V46.4995H181.644V44.0544H176.221V39.1199H178.132C181.066 39.1199 182.222 39.3866 183.511 39.9201L183.956 40.0979V36.5859H171.642V54.1013Z" fill="white"/>
<path d="M46.6335 23.8725C45.9666 17.0708 43.0771 10.8915 38.7649 6.09037C38.0536 5.29017 37.2979 4.57889 36.5422 3.86761C34.9418 2.40058 33.1635 1.11138 31.252 0V7.02393C32.0522 7.6463 32.7634 8.26868 33.4747 8.97996C36.8533 12.3141 39.2539 16.5818 40.3653 21.383C40.5876 22.4054 40.7654 23.4724 40.8543 24.5838C40.9432 25.3839 40.9877 26.1397 40.9877 26.9399C40.9877 28.2291 40.8987 29.4738 40.7209 30.7186C40.5875 31.6966 40.3653 32.6746 40.0986 33.6082C38.8983 37.9203 36.5866 41.7879 33.5192 44.8998C32.8079 45.6111 32.0522 46.2335 31.2964 46.8558C29.696 48.145 27.9178 49.212 26.0062 50.0566C25.0282 50.5012 24.0058 50.8568 22.9833 51.168C20.6716 51.8348 18.271 52.2349 15.7371 52.2349C13.4254 52.2349 11.2026 51.9237 9.11323 51.3458C8.13521 51.0791 7.20169 50.7679 6.31258 50.4123L0.177734 53.9242C2.04485 54.9911 4.04535 55.8803 6.13475 56.5915C7.11276 56.9027 8.1352 57.1694 9.15767 57.3917C11.2915 57.8363 13.4699 58.103 15.7371 58.103C20.1826 58.103 24.4503 57.1695 28.2734 55.4802C29.2959 55.0356 30.3184 54.5021 31.2964 53.9242C33.208 52.8128 34.9862 51.5236 36.5866 50.0566C37.3868 49.3453 38.0981 48.5896 38.8094 47.8339C41.699 44.6775 43.8773 40.8988 45.2554 36.7645C45.5666 35.7865 45.8778 34.764 46.1 33.7415C46.5446 31.6521 46.8113 29.4738 46.8558 27.2511C46.8558 27.1622 46.8558 27.0732 46.8558 26.9843C46.7668 25.9174 46.7224 24.8949 46.6335 23.8725Z" fill="white"/>
<path d="M6.17929 50.4577C6.31266 49.4796 6.53494 48.5016 6.80168 47.5681C8.04642 43.0336 10.5359 38.9882 13.8701 35.8319C13.2922 33.698 12.9365 31.4308 12.7587 29.1191C7.60188 32.8978 3.64532 38.2325 1.60038 44.4562C1.28919 45.4342 0.978048 46.4567 0.755772 47.4792C0.311219 49.5686 0.0444553 51.7469 0 53.9696" fill="white"/>
<path d="M31.2078 0C29.2962 1.11138 27.518 2.40058 25.9176 3.86761C25.1174 4.57889 24.4061 5.33463 23.6948 6.09037C19.3382 10.8915 16.493 17.0708 15.8262 23.8725C15.7373 24.8949 15.6929 25.9174 15.6929 26.9843C15.6929 27.0732 15.6929 27.1622 15.6929 27.2511C15.6929 29.4738 15.9596 31.6521 16.4486 33.7415C16.6709 34.764 16.9376 35.7865 17.2932 36.7645C18.6714 40.8988 20.8941 44.6775 23.7393 47.8338C25.6508 47.0781 27.4291 46.1001 29.0294 44.8998C25.9176 41.8324 23.6059 37.9648 22.45 33.6082C22.1833 32.6746 21.961 31.6966 21.8277 30.7186C21.6498 29.4738 21.5609 28.2291 21.5609 26.9399C21.5609 26.1397 21.6054 25.3395 21.6943 24.5838C21.7832 23.5168 21.9611 22.4499 22.1833 21.383C23.2503 16.5818 25.6953 12.3141 29.0739 8.97996C29.7852 8.26868 30.5409 7.6463 31.2967 7.02393" fill="white"/>
<path opacity="0.5" d="M31.2078 0C29.2962 1.11138 27.518 2.40058 25.9176 3.86761C25.1174 4.57889 24.4061 5.33463 23.6948 6.09037C19.3382 10.8915 16.493 17.0708 15.8262 23.8725C15.7373 24.8949 15.6929 25.9174 15.6929 26.9843C15.6929 27.0732 15.6929 27.1622 15.6929 27.2511C15.6929 29.4738 15.9596 31.6521 16.4486 33.7415C16.6709 34.764 13.6035 13.381 31.2967 1.95603" fill="white"/>
<path d="M61.6148 47.4777C61.3925 46.4552 61.1258 45.4327 60.7702 44.4547C58.7252 38.2754 54.7687 32.9408 49.6119 29.1621C49.4785 31.4738 49.0784 33.6965 48.5005 35.8749C51.8346 39.0312 54.3241 43.0766 55.5689 47.611C55.8356 48.5446 56.0579 49.5226 56.1913 50.5006L62.3261 54.0126C62.3261 51.7454 62.0593 49.5671 61.6148 47.4777Z" fill="white"/>
<path d="M56.2363 50.457C55.3027 50.8127 54.3692 51.1239 53.4356 51.3906C51.3018 51.9685 49.1235 52.2797 46.8118 52.2797C44.2779 52.2797 41.8772 51.9241 39.5656 51.2128C37.9652 52.8132 36.187 54.2357 34.2754 55.4805C38.0985 57.1698 42.3663 58.1033 46.8118 58.1033C49.079 58.1033 51.2573 57.8366 53.3911 57.392C54.4136 57.1698 55.4361 56.903 56.4141 56.5919C58.5035 55.925 60.504 55.0359 62.3711 53.9245" fill="white"/>
</svg>
