<svg width="1920" height="1080" viewBox="0 0 1920 1080" fill="none" xmlns="http://www.w3.org/2000/svg">
<g clip-path="url(#clip0_564_27997)">
<g opacity="0.4">
<path d="M2493.81 629.274C2493.81 1307.53 1940.49 1857.18 1257.88 1857.18C575.267 1857.18 21.9487 1307.23 21.9487 629.274C21.9487 -48.6779 574.961 -598.939 1257.57 -598.939C1940.18 -598.939 2493.81 -48.9841 2493.81 629.274Z" stroke="url(#paint0_linear_564_27997)" stroke-width="1.9234"/>
<path d="M1256.04 1857.18C1482.27 1857.18 1665.67 1673.89 1665.67 1447.78C1665.67 1221.67 1482.27 1038.37 1256.04 1038.37C1029.81 1038.37 846.412 1221.67 846.412 1447.78C846.412 1673.89 1029.81 1857.18 1256.04 1857.18Z" stroke="url(#paint1_linear_564_27997)" stroke-width="1.9234"/>
<path d="M1256.04 1450.84C1482.27 1450.84 1665.67 1267.54 1665.67 1041.43C1665.67 815.326 1482.27 632.029 1256.04 632.029C1029.81 632.029 846.412 815.326 846.412 1041.43C846.412 1267.54 1029.81 1450.84 1256.04 1450.84Z" stroke="url(#paint2_linear_564_27997)" stroke-width="1.9234"/>
<path d="M899.721 1654.16C1125.95 1654.16 1309.35 1470.87 1309.35 1244.76C1309.35 1018.65 1125.95 835.354 899.721 835.354C673.49 835.354 490.094 1018.65 490.094 1244.76C490.094 1470.87 673.49 1654.16 899.721 1654.16Z" stroke="url(#paint3_linear_564_27997)" stroke-width="1.9234"/>
<path d="M1612.66 1654.16C1838.89 1654.16 2022.29 1470.87 2022.29 1244.76C2022.29 1018.65 1838.89 835.354 1612.66 835.354C1386.43 835.354 1203.04 1018.65 1203.04 1244.76C1203.04 1470.87 1386.43 1654.16 1612.66 1654.16Z" stroke="url(#paint4_linear_564_27997)" stroke-width="1.9234"/>
<path d="M1256.04 629.274C1482.27 629.274 1665.67 445.977 1665.67 219.869C1665.67 -6.23859 1482.27 -189.535 1256.04 -189.535C1029.81 -189.535 846.412 -6.23859 846.412 219.869C846.412 445.977 1029.81 629.274 1256.04 629.274Z" stroke="url(#paint5_linear_564_27997)" stroke-width="1.9234"/>
<path d="M899.721 832.293C1125.95 832.293 1309.35 648.997 1309.35 422.889C1309.35 196.781 1125.95 13.4844 899.721 13.4844C673.49 13.4844 490.094 196.781 490.094 422.889C490.094 648.997 673.49 832.293 899.721 832.293Z" stroke="url(#paint6_linear_564_27997)" stroke-width="1.9234"/>
<path d="M1612.66 832.293C1838.89 832.293 2022.29 648.997 2022.29 422.889C2022.29 196.781 1838.89 13.4844 1612.66 13.4844C1386.43 13.4844 1203.04 196.781 1203.04 422.889C1203.04 648.997 1386.43 832.293 1612.66 832.293Z" stroke="url(#paint7_linear_564_27997)" stroke-width="1.9234"/>
<path d="M1965.61 1447.78C2191.84 1447.78 2375.24 1264.48 2375.24 1038.37C2375.24 812.265 2191.84 628.969 1965.61 628.969C1739.38 628.969 1555.98 812.265 1555.98 1038.37C1555.98 1264.48 1739.38 1447.78 1965.61 1447.78Z" stroke="url(#paint8_linear_564_27997)" stroke-width="1.9234"/>
<path d="M1965.61 629.274C2191.84 629.274 2375.24 445.977 2375.24 219.869C2375.24 -6.23859 2191.84 -189.535 1965.61 -189.535C1739.38 -189.535 1555.98 -6.23859 1555.98 219.869C1555.98 445.977 1739.38 629.274 1965.61 629.274Z" stroke="url(#paint9_linear_564_27997)" stroke-width="1.9234"/>
<path d="M1256.04 1038.68C1482.27 1038.68 1665.67 855.381 1665.67 629.273C1665.67 403.166 1482.27 219.869 1256.04 219.869C1029.81 219.869 846.412 403.166 846.412 629.273C846.412 855.381 1029.81 1038.68 1256.04 1038.68Z" stroke="url(#paint10_linear_564_27997)" stroke-width="1.9234"/>
<path d="M546.161 1038.68C772.392 1038.68 955.789 855.381 955.789 629.273C955.789 403.166 772.392 219.869 546.161 219.869C319.93 219.869 136.534 403.166 136.534 629.273C136.534 855.381 319.93 1038.68 546.161 1038.68Z" stroke="url(#paint11_linear_564_27997)" stroke-width="1.9234"/>
<path d="M1966.22 1038.68C2192.45 1038.68 2375.85 855.381 2375.85 629.273C2375.85 403.166 2192.45 219.869 1966.22 219.869C1739.99 219.869 1556.6 403.166 1556.6 629.273C1556.6 855.381 1739.99 1038.68 1966.22 1038.68Z" stroke="url(#paint12_linear_564_27997)" stroke-width="1.9234"/>
<path d="M1256.04 219.869C1482.27 219.869 1665.67 36.5726 1665.67 -189.535C1665.67 -415.643 1482.27 -598.939 1256.04 -598.939C1029.81 -598.939 846.412 -415.643 846.412 -189.535C846.412 36.5726 1029.81 219.869 1256.04 219.869Z" stroke="url(#paint13_linear_564_27997)" stroke-width="1.9234"/>
<path d="M546.774 629.274C773.005 629.274 956.401 445.977 956.401 219.869C956.401 -6.23859 773.005 -189.535 546.774 -189.535C320.543 -189.535 137.147 -6.23859 137.147 219.869C137.147 445.977 320.543 629.274 546.774 629.274Z" stroke="url(#paint14_linear_564_27997)" stroke-width="1.9234"/>
<path d="M900.334 423.807C1126.57 423.807 1309.96 240.51 1309.96 14.4024C1309.96 -211.705 1126.57 -395.002 900.334 -395.002C674.103 -395.002 490.707 -211.705 490.707 14.4024C490.707 240.51 674.103 423.807 900.334 423.807Z" stroke="url(#paint15_linear_564_27997)" stroke-width="1.9234"/>
<path d="M904.623 -396.84C1017.98 -199.334 949.661 52.6782 752.047 165.976C554.433 279.274 302.284 210.989 188.925 13.4831" stroke="url(#paint16_linear_564_27997)" stroke-width="1.9234"/>
<path d="M904.623 1653.24C1017.98 1455.74 949.661 1203.73 752.047 1090.43C554.433 977.13 302.284 1045.41 188.925 1242.92" stroke="url(#paint17_linear_564_27997)" stroke-width="1.9234"/>
<path d="M2320.4 836.886C2093.37 836.274 1909.85 651.628 1910.46 424.726C1911.07 197.823 2095.82 14.4028 2322.85 15.0152" stroke="url(#paint18_linear_564_27997)" stroke-width="1.9234"/>
<path d="M2320.4 421.357C2093.37 421.97 1909.85 606.615 1910.46 833.518C1911.07 1060.42 2095.82 1243.84 2322.85 1243.23" stroke="url(#paint19_linear_564_27997)" stroke-width="1.9234"/>
<path d="M1969.59 -192.597C1857.46 4.29699 1606.53 73.1945 1409.53 -38.8788C1212.53 -150.952 1143.6 -401.739 1255.73 -598.633" stroke="url(#paint20_linear_564_27997)" stroke-width="1.9234"/>
<path d="M189.537 836.885C331.697 836.272 469.567 908.844 544.936 1039.6C619.998 1169.74 614.484 1324.37 543.71 1446.86" stroke="url(#paint21_linear_564_27997)" stroke-width="1.9234"/>
<path d="M192.601 424.42C334.761 425.032 472.631 352.46 548 221.708C623.062 91.5684 617.547 -63.0683 546.774 -185.553" stroke="url(#paint22_linear_564_27997)" stroke-width="1.9234"/>
<path d="M2321.93 422.275C2179.77 422.887 2041.9 350.315 1966.22 219.563C1891.16 89.4234 1896.67 -65.2132 1967.45 -188.004" stroke="url(#paint23_linear_564_27997)" stroke-width="1.9234"/>
<path d="M191.069 1235.57C225.69 1176.17 245.298 1106.96 245.298 1033.78C245.298 959.676 225.384 890.166 190.15 830.455" stroke="url(#paint24_linear_564_27997)" stroke-width="1.9234"/>
<path d="M187.393 420.133C224.465 479.844 245.911 549.048 246.217 623.151C246.524 697.866 225.69 767.683 188.618 828.312" stroke="url(#paint25_linear_564_27997)" stroke-width="1.9234"/>
<path d="M192.908 11.0336C262.455 13.1771 332.003 -2.74593 395.423 -38.8789C459.456 -75.318 508.783 -127.986 542.485 -189.229" stroke="url(#paint26_linear_564_27997)" stroke-width="1.9234"/>
<path d="M188.312 14.0957C224.771 73.1945 245.911 141.48 246.217 214.358C246.524 287.849 225.996 357.052 189.231 416.763" stroke="url(#paint27_linear_564_27997)" stroke-width="1.9234"/>
<path d="M1967.14 1447.16C1895.45 1324.07 1889.32 1168.21 1965 1037.45C2040.37 907.008 2177.32 834.436 2319.17 834.436" stroke="url(#paint28_linear_564_27997)" stroke-width="1.9234"/>
<path d="M1613.28 1653.86C1499 1458.8 1564.56 1208.32 1759.72 1094.1C1954.89 979.886 2205.5 1045.42 2319.78 1240.47" stroke="url(#paint29_linear_564_27997)" stroke-width="1.9234"/>
<path d="M1613.28 -395.615C1499 -200.559 1564.56 49.922 1759.72 164.139C1954.89 278.356 2205.5 212.826 2319.78 17.7699" stroke="url(#paint30_linear_564_27997)" stroke-width="1.9234"/>
<path d="M189.537 425.338C415.644 424.113 600.084 606.003 601.309 831.987C602.535 1057.97 420.546 1242.31 194.44 1243.53" stroke="url(#paint31_linear_564_27997)" stroke-width="1.9234"/>
<path d="M1255.43 -599.857C1368.17 -403.882 1300.77 -154.014 1104.99 -41.3282C909.219 71.3575 658.602 3.99105 545.855 -191.678" stroke="url(#paint32_linear_564_27997)" stroke-width="1.9234"/>
<path d="M189.537 16.5449C415.644 16.5449 598.858 199.659 598.858 425.643C598.858 651.627 415.644 834.741 189.537 834.741" stroke="url(#paint33_linear_564_27997)" stroke-width="1.9234"/>
<path d="M1613.28 423.807C1839.51 423.807 2022.9 240.51 2022.9 14.4024C2022.9 -211.705 1839.51 -395.002 1613.28 -395.002C1387.04 -395.002 1203.65 -211.705 1203.65 14.4024C1203.65 240.51 1387.04 423.807 1613.28 423.807Z" stroke="url(#paint34_linear_564_27997)" stroke-width="1.9234"/>
<path d="M836.316 1327.9C996.284 1168.02 996.284 908.797 836.316 748.917C676.348 589.036 416.989 589.036 257.022 748.916C97.0537 908.797 97.0537 1168.02 257.022 1327.9C416.989 1487.78 676.349 1487.78 836.316 1327.9Z" stroke="url(#paint35_linear_564_27997)" stroke-width="1.9234"/>
<path d="M900.334 1242.62C1126.57 1242.62 1309.96 1059.32 1309.96 833.211C1309.96 607.103 1126.57 423.807 900.334 423.807C674.103 423.807 490.707 607.103 490.707 833.211C490.707 1059.32 674.103 1242.62 900.334 1242.62Z" stroke="url(#paint36_linear_564_27997)" stroke-width="1.9234"/>
<path d="M1903.04 1122.76C2063.01 962.877 2063.01 703.659 1903.04 543.778C1743.07 383.897 1483.71 383.897 1323.74 543.778C1163.78 703.659 1163.78 962.877 1323.74 1122.76C1483.71 1282.64 1743.07 1282.64 1903.04 1122.76Z" stroke="url(#paint37_linear_564_27997)" stroke-width="1.9234"/>
</g>
</g>
<defs>
<linearGradient id="paint0_linear_564_27997" x1="1257.64" y1="-601.811" x2="1257.64" y2="1860.13" gradientUnits="userSpaceOnUse">
<stop stop-color="#9D9D9D"/>
<stop offset="0.515" stop-color="#663E3E"/>
<stop offset="1" stop-color="#7B7B7B"/>
</linearGradient>
<linearGradient id="paint1_linear_564_27997" x1="1256.16" y1="1035.56" x2="1256.16" y2="1860.13" gradientUnits="userSpaceOnUse">
<stop stop-color="#9D9D9D"/>
<stop offset="0.515" stop-color="#663E3E"/>
<stop offset="1" stop-color="#7B7B7B"/>
</linearGradient>
<linearGradient id="paint2_linear_564_27997" x1="1256.16" y1="629.158" x2="1256.16" y2="1453.73" gradientUnits="userSpaceOnUse">
<stop stop-color="#9D9D9D"/>
<stop offset="0.515" stop-color="#663E3E"/>
<stop offset="1" stop-color="#7B7B7B"/>
</linearGradient>
<linearGradient id="paint3_linear_564_27997" x1="899.637" y1="832.357" x2="899.637" y2="1656.93" gradientUnits="userSpaceOnUse">
<stop stop-color="#9D9D9D"/>
<stop offset="0.515" stop-color="#663E3E"/>
<stop offset="1" stop-color="#7B7B7B"/>
</linearGradient>
<linearGradient id="paint4_linear_564_27997" x1="1612.69" y1="832.357" x2="1612.69" y2="1656.93" gradientUnits="userSpaceOnUse">
<stop stop-color="#9D9D9D"/>
<stop offset="0.515" stop-color="#663E3E"/>
<stop offset="1" stop-color="#7B7B7B"/>
</linearGradient>
<linearGradient id="paint5_linear_564_27997" x1="1256.16" y1="-192.467" x2="1256.16" y2="632.103" gradientUnits="userSpaceOnUse">
<stop stop-color="#9D9D9D"/>
<stop offset="0.515" stop-color="#663E3E"/>
<stop offset="1" stop-color="#7B7B7B"/>
</linearGradient>
<linearGradient id="paint6_linear_564_27997" x1="899.637" y1="10.7297" x2="899.637" y2="835.3" gradientUnits="userSpaceOnUse">
<stop stop-color="#9D9D9D"/>
<stop offset="0.515" stop-color="#663E3E"/>
<stop offset="1" stop-color="#7B7B7B"/>
</linearGradient>
<linearGradient id="paint7_linear_564_27997" x1="1612.69" y1="10.7297" x2="1612.69" y2="835.3" gradientUnits="userSpaceOnUse">
<stop stop-color="#9D9D9D"/>
<stop offset="0.515" stop-color="#663E3E"/>
<stop offset="1" stop-color="#7B7B7B"/>
</linearGradient>
<linearGradient id="paint8_linear_564_27997" x1="1608.35" y1="832.441" x2="2322.62" y2="1245.06" gradientUnits="userSpaceOnUse">
<stop stop-color="#9D9D9D"/>
<stop offset="0.515" stop-color="#663E3E"/>
<stop offset="1" stop-color="#7B7B7B"/>
</linearGradient>
<linearGradient id="paint9_linear_564_27997" x1="1608.35" y1="426.066" x2="2322.62" y2="13.4442" gradientUnits="userSpaceOnUse">
<stop stop-color="#9D9D9D"/>
<stop offset="0.515" stop-color="#663E3E"/>
<stop offset="1" stop-color="#7B7B7B"/>
</linearGradient>
<linearGradient id="paint10_linear_564_27997" x1="1256.16" y1="216.873" x2="1256.16" y2="1041.44" gradientUnits="userSpaceOnUse">
<stop stop-color="#9D9D9D"/>
<stop offset="0.515" stop-color="#663E3E"/>
<stop offset="1" stop-color="#7B7B7B"/>
</linearGradient>
<linearGradient id="paint11_linear_564_27997" x1="546.055" y1="216.873" x2="546.055" y2="1041.44" gradientUnits="userSpaceOnUse">
<stop stop-color="#9D9D9D"/>
<stop offset="0.515" stop-color="#663E3E"/>
<stop offset="1" stop-color="#7B7B7B"/>
</linearGradient>
<linearGradient id="paint12_linear_564_27997" x1="1966.27" y1="216.873" x2="1966.27" y2="1041.44" gradientUnits="userSpaceOnUse">
<stop stop-color="#9D9D9D"/>
<stop offset="0.515" stop-color="#663E3E"/>
<stop offset="1" stop-color="#7B7B7B"/>
</linearGradient>
<linearGradient id="paint13_linear_564_27997" x1="1256.16" y1="-601.81" x2="1256.16" y2="222.76" gradientUnits="userSpaceOnUse">
<stop stop-color="#9D9D9D"/>
<stop offset="0.515" stop-color="#663E3E"/>
<stop offset="1" stop-color="#7B7B7B"/>
</linearGradient>
<linearGradient id="paint14_linear_564_27997" x1="189.6" y1="13.7204" x2="903.872" y2="426.342" gradientUnits="userSpaceOnUse">
<stop stop-color="#9D9D9D"/>
<stop offset="0.515" stop-color="#663E3E"/>
<stop offset="1" stop-color="#7B7B7B"/>
</linearGradient>
<linearGradient id="paint15_linear_564_27997" x1="543.18" y1="-191.697" x2="1257.45" y2="220.924" gradientUnits="userSpaceOnUse">
<stop stop-color="#9D9D9D"/>
<stop offset="0.515" stop-color="#663E3E"/>
<stop offset="1" stop-color="#7B7B7B"/>
</linearGradient>
<linearGradient id="paint16_linear_564_27997" x1="546.775" y1="-191.752" x2="751.8" y2="166.005" gradientUnits="userSpaceOnUse">
<stop stop-color="#9D9D9D"/>
<stop offset="0.515" stop-color="#663E3E"/>
<stop offset="1" stop-color="#7B7B7B"/>
</linearGradient>
<linearGradient id="paint17_linear_564_27997" x1="546.774" y1="1448.11" x2="751.8" y2="1090.35" gradientUnits="userSpaceOnUse">
<stop stop-color="#9D9D9D"/>
<stop offset="0.515" stop-color="#663E3E"/>
<stop offset="1" stop-color="#7B7B7B"/>
</linearGradient>
<linearGradient id="paint18_linear_564_27997" x1="2321.52" y1="426.023" x2="1910.28" y2="424.8" gradientUnits="userSpaceOnUse">
<stop stop-color="#9D9D9D"/>
<stop offset="0.515" stop-color="#663E3E"/>
<stop offset="1" stop-color="#7B7B7B"/>
</linearGradient>
<linearGradient id="paint19_linear_564_27997" x1="2321.64" y1="832.518" x2="1910.39" y2="833.741" gradientUnits="userSpaceOnUse">
<stop stop-color="#9D9D9D"/>
<stop offset="0.515" stop-color="#663E3E"/>
<stop offset="1" stop-color="#7B7B7B"/>
</linearGradient>
<linearGradient id="paint20_linear_564_27997" x1="1612.69" y1="-395.592" x2="1409.7" y2="-38.8555" gradientUnits="userSpaceOnUse">
<stop stop-color="#9D9D9D"/>
<stop offset="0.515" stop-color="#663E3E"/>
<stop offset="1" stop-color="#7B7B7B"/>
</linearGradient>
<linearGradient id="paint21_linear_564_27997" x1="365.974" y1="1142.19" x2="544.7" y2="1038.95" gradientUnits="userSpaceOnUse">
<stop stop-color="#9D9D9D"/>
<stop offset="0.515" stop-color="#663E3E"/>
<stop offset="1" stop-color="#7B7B7B"/>
</linearGradient>
<linearGradient id="paint22_linear_564_27997" x1="368.921" y1="118.874" x2="547.647" y2="222.118" gradientUnits="userSpaceOnUse">
<stop stop-color="#9D9D9D"/>
<stop offset="0.515" stop-color="#663E3E"/>
<stop offset="1" stop-color="#7B7B7B"/>
</linearGradient>
<linearGradient id="paint23_linear_564_27997" x1="2145.37" y1="116.786" x2="1966.45" y2="220.14" gradientUnits="userSpaceOnUse">
<stop stop-color="#9D9D9D"/>
<stop offset="0.515" stop-color="#663E3E"/>
<stop offset="1" stop-color="#7B7B7B"/>
</linearGradient>
<linearGradient id="paint24_linear_564_27997" x1="190.202" y1="1032.78" x2="245.208" y2="1032.78" gradientUnits="userSpaceOnUse">
<stop stop-color="#9D9D9D"/>
<stop offset="0.515" stop-color="#663E3E"/>
<stop offset="1" stop-color="#7B7B7B"/>
</linearGradient>
<linearGradient id="paint25_linear_564_27997" x1="187.58" y1="624.156" x2="246.245" y2="623.868" gradientUnits="userSpaceOnUse">
<stop stop-color="#9D9D9D"/>
<stop offset="0.515" stop-color="#663E3E"/>
<stop offset="1" stop-color="#7B7B7B"/>
</linearGradient>
<linearGradient id="paint26_linear_564_27997" x1="367.479" y1="-89.6845" x2="396.16" y2="-39.4095" gradientUnits="userSpaceOnUse">
<stop stop-color="#9D9D9D"/>
<stop offset="0.515" stop-color="#663E3E"/>
<stop offset="1" stop-color="#7B7B7B"/>
</linearGradient>
<linearGradient id="paint27_linear_564_27997" x1="188.344" y1="215.355" x2="246.246" y2="215.07" gradientUnits="userSpaceOnUse">
<stop stop-color="#9D9D9D"/>
<stop offset="0.515" stop-color="#663E3E"/>
<stop offset="1" stop-color="#7B7B7B"/>
</linearGradient>
<linearGradient id="paint28_linear_564_27997" x1="2143.85" y1="1141.09" x2="1964.64" y2="1037.57" gradientUnits="userSpaceOnUse">
<stop stop-color="#9D9D9D"/>
<stop offset="0.515" stop-color="#663E3E"/>
<stop offset="1" stop-color="#7B7B7B"/>
</linearGradient>
<linearGradient id="paint29_linear_564_27997" x1="1966.4" y1="1447.29" x2="1759.75" y2="1094.12" gradientUnits="userSpaceOnUse">
<stop stop-color="#9D9D9D"/>
<stop offset="0.515" stop-color="#663E3E"/>
<stop offset="1" stop-color="#7B7B7B"/>
</linearGradient>
<linearGradient id="paint30_linear_564_27997" x1="1966.51" y1="-188.97" x2="1759.87" y2="164.2" gradientUnits="userSpaceOnUse">
<stop stop-color="#9D9D9D"/>
<stop offset="0.515" stop-color="#663E3E"/>
<stop offset="1" stop-color="#7B7B7B"/>
</linearGradient>
<linearGradient id="paint31_linear_564_27997" x1="192" y1="834.605" x2="601.343" y2="832.135" gradientUnits="userSpaceOnUse">
<stop stop-color="#9D9D9D"/>
<stop offset="0.515" stop-color="#663E3E"/>
<stop offset="1" stop-color="#7B7B7B"/>
</linearGradient>
<linearGradient id="paint32_linear_564_27997" x1="900.626" y1="-395.868" x2="1104.67" y2="-41.1869" gradientUnits="userSpaceOnUse">
<stop stop-color="#9D9D9D"/>
<stop offset="0.515" stop-color="#663E3E"/>
<stop offset="1" stop-color="#7B7B7B"/>
</linearGradient>
<linearGradient id="paint33_linear_564_27997" x1="189.529" y1="425.746" x2="598.878" y2="425.746" gradientUnits="userSpaceOnUse">
<stop stop-color="#9D9D9D"/>
<stop offset="0.515" stop-color="#663E3E"/>
<stop offset="1" stop-color="#7B7B7B"/>
</linearGradient>
<linearGradient id="paint34_linear_564_27997" x1="1256.23" y1="-191.679" x2="1970.51" y2="220.942" gradientUnits="userSpaceOnUse">
<stop stop-color="#9D9D9D"/>
<stop offset="0.515" stop-color="#663E3E"/>
<stop offset="1" stop-color="#7B7B7B"/>
</linearGradient>
<linearGradient id="paint35_linear_564_27997" x1="440.067" y1="1436.76" x2="653.364" y2="640.253" gradientUnits="userSpaceOnUse">
<stop stop-color="#9D9D9D"/>
<stop offset="0.515" stop-color="#663E3E"/>
<stop offset="1" stop-color="#7B7B7B"/>
</linearGradient>
<linearGradient id="paint36_linear_564_27997" x1="543.142" y1="1039.3" x2="1257.41" y2="626.676" gradientUnits="userSpaceOnUse">
<stop stop-color="#9D9D9D"/>
<stop offset="0.515" stop-color="#663E3E"/>
<stop offset="1" stop-color="#7B7B7B"/>
</linearGradient>
<linearGradient id="paint37_linear_564_27997" x1="1506.72" y1="1231.36" x2="1720.01" y2="434.849" gradientUnits="userSpaceOnUse">
<stop stop-color="#9D9D9D"/>
<stop offset="0.515" stop-color="#663E3E"/>
<stop offset="1" stop-color="#7B7B7B"/>
</linearGradient>
<clipPath id="clip0_564_27997">
<rect width="1920" height="1080" fill="white"/>
</clipPath>
</defs>
</svg>
