<svg width="716" height="636" viewBox="0 0 716 636" fill="none" xmlns="http://www.w3.org/2000/svg">
<path d="M358.213 545.489C405.504 504.667 430.599 472.406 452.142 432.107M358.213 545.489C457.714 631.886 591.612 653.143 713.356 613.59C690.062 494.905 609.262 390.124 476.084 341.692M358.213 545.489C260.444 629.314 124.167 656.798 2.55931 612.574C8.69429 583.397 19.963 554.861 32.8173 528.679C75.1778 442.21 146.128 371.932 239.321 341.692M476.084 341.692C448.72 331.741 403.626 329.384 383.216 327.97M476.084 341.692C498.025 211.588 459.749 90.3056 357.703 2.70898C257.181 88.0901 216.976 226.902 239.321 341.692M383.216 327.97C362.805 326.556 351.367 326.52 330.659 327.97M383.216 327.97C391.38 279.689 397.938 206.831 357.703 137.896C326.344 191.752 318.388 266.755 330.659 327.97M330.659 327.97C336.484 357.445 343.143 384.033 358.723 409.794M239.321 341.692C245.067 370.966 260.073 402.355 272.538 428.634C281.399 447.28 291.919 465.057 303.702 481.771M452.142 432.107C425.168 422.06 389.008 410.76 358.723 409.794M452.142 432.107C509.694 453.555 562.5 493.897 593.954 545.489C530.462 543.46 466.188 519.107 420.906 480.945M272.476 428.339C210.055 448.628 154.852 490.709 121.451 545.489C193.139 545.489 255.125 523.312 303.702 481.771M358.723 409.794C340.694 436.811 326.018 462.688 303.702 481.771" stroke="url(#paint0_linear_480_17388)" stroke-width="4"/>
<defs>
<linearGradient id="paint0_linear_480_17388" x1="357.192" y1="327.327" x2="357.192" y2="633.688" gradientUnits="userSpaceOnUse">
<stop stop-color="#FBF43F"/>
<stop offset="1" stop-color="#998C00"/>
</linearGradient>
</defs>
</svg>
