<svg width="487" height="670" viewBox="0 0 487 670" fill="none" xmlns="http://www.w3.org/2000/svg">
<path d="M90.9983 669C86.3218 656.142 77.4498 625.098 79.3738 603.783C81.7789 577.14 121.864 565.608 136.294 550.496C150.724 535.385 181.188 499.595 178.382 490.449C155.485 493.362 130.282 475.74 123.066 454.262C121.864 450.683 126.674 452.671 131.484 443.525C136.294 434.379 121.062 401.77 114.648 386.659C108.235 371.548 116.653 375.127 121.062 379.104C125.471 383.08 150.323 410.917 161.146 409.326C171.969 407.735 187.602 391.829 202.433 377.115C217.264 362.402 222.876 368.764 221.273 373.139C219.669 377.513 195.619 408.928 199.226 409.326C202.834 409.724 248.129 380.296 257.348 375.922C266.568 371.548 264.564 377.91 257.348 384.273C250.133 390.636 215.661 425.63 217.665 425.232C219.669 424.835 251.336 403.361 264.564 396.203C277.791 389.045 278.593 397.794 274.184 401.373C269.775 404.952 238.108 428.811 234.5 431.197C230.893 433.583 248.53 423.244 258.15 417.279C267.77 411.314 271.378 412.905 268.973 418.87C266.568 424.835 206.041 463.408 174.775 481.701C143.509 499.993 133.488 480.508 128.277 474.145C124.269 468.18 113.847 456.648 106.231 461.022C94.2054 467.782 67.7497 472.554 54.1211 468.975C40.4924 465.396 46.1042 475.338 56.927 477.724C97.0113 483.689 106.632 459.829 106.231 454.262C105.83 448.695 45.3025 445.911 33.6781 443.923C22.0536 441.934 24.4587 410.519 22.0536 389.443C19.6486 368.367 17.2436 375.524 6.82164 428.811C-8.81123 522.66 6.01996 577.537 63.7413 574.356C121.463 571.175 155.935 498.402 160.745 493.233C178.382 468.975 181.99 456.648 249.332 454.262C316.673 451.876 398.846 453.864 400.049 446.309C401.251 438.753 396.04 398.191 403.255 398.589C410.47 398.987 433.719 408.531 426.905 457.443C422.095 468.975 406.863 485.28 369.184 465.794C357.158 459.034 378.002 460.624 397.643 454.262C400.049 451.478 401.251 321.045 392.433 309.115C388.023 303.945 228.488 315.08 221.273 317.466C214.057 319.852 215.26 332.975 199.226 330.986C183.193 328.998 199.226 328.6 161.146 323.033C123.066 317.466 27.6654 300.764 18.4461 309.115C15.2393 311.899 18.0452 369.56 20.0494 369.162C22.0536 368.764 12.0326 297.185 27.6654 294.799C43.2983 292.413 109.037 299.571 162.349 295.594C173.572 294.799 198.425 309.115 202.433 311.898C206.441 314.682 211.652 316.273 235.703 307.524C245.323 304.343 367.179 303.15 377.2 303.15C387.222 303.15 388.825 301.957 385.217 290.425C381.61 278.892 377.2 245.886 346.736 242.705C332.707 241.114 329.901 240.717 332.306 248.272C334.711 255.828 350.344 288.436 352.348 288.039C354.352 287.641 339.922 241.114 322.686 236.342C305.45 231.571 294.226 224.413 298.635 231.968C303.045 239.524 313.867 248.272 298.635 253.044C283.403 257.816 220.872 268.553 190.809 236.342C182.391 224.015 191.209 217.652 195.218 205.722C199.226 193.793 183.994 162.377 180.787 159.196C177.581 156.015 159.543 154.822 158.34 138.12C157.138 121.418 156.336 113.862 162.349 116.646C168.361 119.429 175.176 133.348 177.982 136.529C180.787 139.71 176.378 123.804 188.403 122.611C200.429 121.418 241.716 132.95 245.323 113.067C248.931 93.1837 244.121 64.1543 261.758 67.3356C279.395 70.5169 276.99 106.307 293.424 110.681C298.635 111.476 305.85 108.693 307.053 105.511C308.256 102.33 314.669 94.3769 315.07 105.511C315.471 116.646 315.872 137.324 311.462 139.71C307.053 142.096 305.049 141.301 300.239 154.026C295.429 166.752 286.209 210.097 268.171 216.459C250.133 222.822 232.095 220.038 217.665 208.904C210.049 202.541 203.635 181.863 195.218 169.138C186.8 156.412 173.572 123.406 168.762 118.237C163.952 113.067 150.724 100.739 148.319 85.2305C145.914 69.7217 143.91 53.4175 150.724 45.4642C157.539 37.5109 162.75 28.3647 166.357 20.4114C169.965 12.4582 199.226 -9.41333 240.513 6.89087C251.737 12.0605 261.758 19.2183 261.758 48.6454C261.758 55.008 263.361 62.5636 259.754 61.7683C256.146 60.973 250.133 26.7739 246.125 20.809C242.116 14.844 240.112 6.89078 255.344 4.10713C270.576 1.32349 307.855 15.6396 311.462 45.4642C315.07 78.4702 312.665 97.1604 305.049 100.739C297.433 104.318 270.576 111.476 263.762 112.272C256.948 113.067 249.332 116.646 250.534 133.348C251.737 150.05 254.943 164.365 254.943 166.751C254.943 169.138 248.129 169.535 249.332 176.295C250.534 183.056 250.935 183.056 258.15 182.26C265.365 181.465 273.783 184.646 270.977 185.044C268.171 185.442 245.323 191.407 237.707 191.407C233.298 191.009 236.905 196.576 241.716 197.372C246.526 198.167 256.146 199.36 256.547 203.336C256.948 207.313 257.749 216.062 250.534 228.787C245.724 238.331 247.728 250.658 258.952 252.249C270.175 253.84 291.821 252.249 289.015 239.126C286.209 226.003 284.205 206.915 286.61 205.722C289.015 204.529 294.226 232.366 295.429 237.536C296.631 242.705 305.45 262.986 230.492 259.009C195.218 257.021 177.982 233.957 180.787 228.787C183.593 223.617 183.193 221.629 173.572 222.822C163.952 224.015 150.323 232.764 148.72 237.536C147.117 242.307 148.319 248.67 153.931 255.828C159.543 262.986 160.344 289.813 151.125 293.208C141.906 296.604 112.243 298.378 109.437 289.629C106.632 280.881 96.6104 251.056 99.4163 245.886C102.222 240.717 133.889 230.378 137.897 234.752C141.906 239.126 107.834 252.647 84.5851 257.419C61.3363 262.191 41.2941 270.542 40.4924 296.787C40.4924 301.162 91.3995 299.969 114.648 301.957C137.897 303.945 164.353 305.536 192.813 319.852C198.024 321.442 204.838 319.056 217.665 304.343C226.484 298.378 370.386 290.822 378.804 297.583C373.192 301.957 386.019 308.717 389.226 303.15C390.027 293.208 385.217 275.711 383.213 267.36C381.209 259.009 388.825 261.395 396.04 267.36C403.255 273.325 436.124 281.676 446.145 342.916C456.167 404.156 463.783 445.115 470.597 461.022C477.411 476.929 487.432 493.631 485.829 507.151C484.226 520.672 449.753 562.824 441.335 581.117C435.323 593.444 425.302 591.854 408.867 574.356C392.433 556.859 373.192 498.403 371.188 490.449C369.184 482.496 359.964 467.783 390.829 469.373C421.694 470.964 424.901 459.432 432.116 463.011C439.331 466.59 460.977 485.28 462.981 488.859C464.985 492.438 443.34 480.905 428.909 477.724C421.694 477.326 401.251 484.484 393.635 485.677C386.019 486.87 380.006 487.268 383.614 497.607C387.222 507.947 401.251 550.497 406.462 561.631C411.673 572.766 404.057 662.24 406.462 669" stroke="url(#paint0_linear_617_22984)" stroke-linecap="round"/>
<defs>
<linearGradient id="paint0_linear_617_22984" x1="243.5" y1="1" x2="243.5" y2="669" gradientUnits="userSpaceOnUse">
<stop stop-color="white"/>
<stop offset="1" stop-color="white" stop-opacity="0"/>
</linearGradient>
</defs>
</svg>
