<svg width="70" height="327" viewBox="0 0 70 327" fill="none" xmlns="http://www.w3.org/2000/svg">
<path d="M16.416 39.552L16.416 60.192H1.344L1.34399 6.5882e-07L16.416 0L16.416 20.544L68.544 20.544V39.552L16.416 39.552Z" fill="white"/>
<path d="M1.344 86.3872L1.34399 67.3792L68.544 67.3792V86.3872L1.344 86.3872Z" fill="white"/>
<path d="M50.688 128.074V138.442H68.544V157.45H1.344L1.34399 126.73C1.34399 120.65 2.36799 115.37 4.41599 110.89C6.39999 106.41 9.28 102.954 13.056 100.522C16.768 98.0897 21.152 96.8737 26.208 96.8737C31.072 96.8737 35.328 98.0257 38.976 100.33C42.56 102.57 45.376 105.802 47.424 110.026L68.544 95.5297V115.882L50.688 128.074ZM26.208 116.074C23.072 116.074 20.64 117.066 18.912 119.05C17.184 121.034 16.32 123.978 16.32 127.882V138.442H36V127.882C36 123.978 35.168 121.034 33.504 119.05C31.776 117.066 29.344 116.074 26.208 116.074Z" fill="white"/>
<path d="M1.344 189.981L1.34399 170.973H68.544V189.981H1.344Z" fill="white"/>
<path d="M1.34399 229.105C1.34399 223.025 2.36799 217.745 4.41599 213.265C6.39999 208.785 9.28 205.329 13.056 202.897C16.768 200.465 21.152 199.249 26.208 199.249C31.264 199.249 35.648 200.465 39.36 202.897C43.072 205.329 45.952 208.785 48 213.265C49.984 217.745 50.976 223.025 50.976 229.105V240.817H68.544V259.825H1.344L1.34399 229.105ZM36 230.257C36 226.353 35.168 223.409 33.504 221.425C31.776 219.441 29.344 218.449 26.208 218.449C23.072 218.449 20.64 219.441 18.912 221.425C17.184 223.409 16.32 226.353 16.32 230.257V240.817H36V230.257Z" fill="white"/>
<path d="M69.888 298.365C69.888 303.805 69.216 309.085 67.872 314.205C66.528 319.325 64.736 323.485 62.496 326.685L48.48 320.445C50.464 317.437 52.064 313.949 53.28 309.981C54.496 306.013 55.104 302.109 55.104 298.269C55.104 290.973 53.28 287.325 49.632 287.325C47.712 287.325 46.304 288.381 45.408 290.493C44.448 292.541 43.456 295.869 42.432 300.477C41.344 305.533 40.192 309.757 38.976 313.149C37.696 316.541 35.68 319.453 32.928 321.885C30.176 324.317 26.464 325.533 21.792 325.533C17.696 325.533 14.016 324.413 10.752 322.173C7.424 319.933 4.8 316.605 2.88 312.189C0.960001 307.709 2.8255e-07 302.237 0 295.773C-1.9303e-07 291.357 0.512001 287.005 1.536 282.717C2.496 278.429 3.936 274.653 5.856 271.389L19.968 277.245C16.512 283.645 14.784 289.853 14.784 295.869C14.784 299.645 15.36 302.397 16.512 304.125C17.6 305.853 19.04 306.717 20.832 306.717C22.624 306.717 23.968 305.693 24.864 303.645C25.76 301.597 26.688 298.301 27.648 293.757C28.736 288.637 29.92 284.413 31.2 281.085C32.416 277.693 34.4 274.781 37.152 272.349C39.84 269.853 43.52 268.605 48.192 268.605C52.224 268.605 55.872 269.725 59.136 271.965C62.4 274.205 65.024 277.565 67.008 282.045C68.928 286.525 69.888 291.965 69.888 298.365Z" fill="white"/>
</svg>
