<svg width="68" height="272" viewBox="0 0 68 272" fill="none" xmlns="http://www.w3.org/2000/svg">
<path fill-rule="evenodd" clip-rule="evenodd" d="M0.799807 38.036L0.799808 69.812H67.9998V38.036C67.9998 30.676 66.6238 24.148 63.8718 18.452C61.1198 12.756 57.2158 8.34001 52.1598 5.20401C47.1038 2.06801 41.1838 0.5 34.3998 0.5C27.6158 0.5 21.6958 2.06801 16.6398 5.20401C11.5838 8.34001 7.67981 12.756 4.92781 18.452C2.17581 24.148 0.799805 30.676 0.799807 38.036ZM47.9358 24.98C51.1998 28.436 52.8318 33.044 52.8318 38.804V50.804L15.9678 50.804L15.9678 38.804C15.9678 33.044 17.5998 28.436 20.8638 24.98C24.1278 21.46 28.6398 19.7 34.3998 19.7C40.1598 19.7 44.6718 21.46 47.9358 24.98Z" fill="white"/>
<path d="M67.9998 98.8678V83.2198H0.799805V101.844H36.6078L0.799807 131.508L0.799808 147.156H67.9998V128.532H32.1918L67.9998 98.8678Z" fill="white"/>
<path d="M0.799808 179.687L0.799807 160.679H67.9998V179.687H0.799808Z" fill="white"/>
<path d="M32.3838 210.801L67.9998 210.609V193.137L0.799805 193.329V208.977L39.5838 232.017L0.799807 255.633L0.799808 271.281H67.9998V253.713H33.3438L61.3758 236.529V228.081L32.3838 210.801Z" fill="white"/>
</svg>
