<svg width="58" height="58" viewBox="0 0 58 58" fill="none" xmlns="http://www.w3.org/2000/svg">
<path fill-rule="evenodd" clip-rule="evenodd" d="M51.4554 6.54461C49.3782 4.46739 46.0103 4.46739 43.9331 6.54461L30.7466 19.7311L28.8438 21.5643C22.6902 27.493 12.9311 27.4319 6.85219 21.4267L8.60437 19.653L6.8414 21.4159L3.01848 17.593C-1.00616 13.5684 -1.00616 7.04313 3.01848 3.01849C7.04313 -1.00616 13.5684 -1.00616 17.593 3.01849L29 14.4255L40.407 3.01848C44.4316 -1.00616 50.9569 -1.00616 54.9815 3.01849C59.0062 7.04313 59.0062 13.5684 54.9815 17.593L43.5745 29L54.9815 40.407C59.0062 44.4316 59.0062 50.9569 54.9815 54.9815C50.9569 59.0062 44.4316 59.0062 40.407 54.9815L29 43.5745L17.593 54.9815C13.5684 59.0062 7.04313 59.0062 3.01849 54.9815C-1.00616 50.9569 -1.00616 44.4316 3.01849 40.407L6.83465 36.5908C12.8801 30.4555 22.7566 30.3853 28.8887 36.4358L30.7631 38.2853L43.9331 51.4554C46.0103 53.5326 49.3782 53.5326 51.4554 51.4554C53.5326 49.3782 53.5326 46.0103 51.4554 43.9331L36.5223 29L51.4554 14.0669C53.5326 11.9897 53.5326 8.62183 51.4554 6.54461ZM8.60439 38.347L10.3675 40.1102L6.54461 43.9331C4.46739 46.0103 4.46739 49.3782 6.54461 51.4554C8.62183 53.5326 11.9897 53.5326 14.0669 51.4554L25.462 40.0602L25.3863 39.9855C21.2139 35.8687 14.4929 35.9181 10.3816 40.096L8.60439 38.347ZM25.4407 17.9185L14.0669 6.54461C11.9897 4.46739 8.62183 4.46739 6.54461 6.54461C4.46739 8.62183 4.46739 11.9897 6.54461 14.0669L10.3618 17.8841C14.516 21.9826 21.1808 22.0226 25.3839 17.9732L25.4407 17.9185Z" fill="#D2D2FF"/>
</svg>
