<svg width="124" height="124" viewBox="0 0 124 124" fill="none" xmlns="http://www.w3.org/2000/svg">
<path d="M61.9984 94C61.5046 94 61.023 93.8593 60.6201 93.5973L60.5947 93.5798L60.5279 93.536L60.2735 93.3667C55.201 89.9234 50.4261 86.1253 45.9913 82.0062C42.3412 78.594 38.6308 74.6097 35.8201 70.3831C35.6733 70.1621 35.5286 69.94 35.3862 69.7168H45.7944C46.6691 69.7168 47.4423 69.1483 47.7033 68.3135L50.2941 60.0249L55.8802 80.4409C56.1157 81.3018 56.8932 81.9024 57.7857 81.9129C58.6781 81.9234 59.4696 81.3414 59.7254 80.4863L64.8422 63.3827L69.9811 77.0828C70.258 77.8209 70.9426 78.3275 71.7294 78.3765C72.5162 78.4255 73.2584 78.0077 73.6247 77.3097L77.609 69.7168H88.6145C88.4719 69.94 88.327 70.1621 88.1799 70.3831C85.3692 74.6097 81.6588 78.594 78.0087 82.0033C73.8489 85.8695 69.3891 89.4536 64.6644 92.7274C64.2596 93.0076 63.9469 93.2207 63.7265 93.3667L63.4721 93.536L63.4053 93.5798L63.3799 93.5973L62 91.8109L63.3767 93.5973C62.9738 93.8593 62.4922 94 61.9984 94Z" fill="#019D86"/>
<path d="M90.8337 65.7168H76.3999C75.6565 65.7168 74.9744 66.1292 74.6289 66.7875L72.1578 71.4965L66.5011 56.4162C66.1996 55.6123 65.4185 55.0905 64.5604 55.1198C63.7023 55.1491 62.9586 55.7228 62.7125 56.5454L57.8951 72.6483L52.3508 52.3852C52.1165 51.5287 51.3455 50.9293 50.4576 50.9134C49.5698 50.8974 48.7778 51.4688 48.5128 52.3164L44.3241 65.7168H33.1683C31.8332 62.8612 31 59.8941 31 56.921C31 47.703 38.6944 40 48.4872 40C53.9686 40 58.8142 42.4315 62 46.1794C65.1858 42.4315 70.0282 40 75.5128 40C80.1549 40 84.5744 41.2989 87.8492 44.2003C91.14 47.1193 93 51.4188 93 56.921C93 59.8937 92.1683 62.8615 90.8337 65.7168Z" fill="#019D86"/>
</svg>
