<svg width="124" height="124" viewBox="0 0 124 124" fill="none" xmlns="http://www.w3.org/2000/svg">
<path fill-rule="evenodd" clip-rule="evenodd" d="M54.515 86.8081C48.9068 92.3798 39.8142 92.3798 34.2061 86.8081C32.1031 84.7187 30.7886 82.1425 30.2629 79.4446C30.0884 78.5495 30.0008 77.641 30 76.7325C29.9967 73.0769 31.3988 69.4204 34.2061 66.6313L63.8514 37.1788C69.4595 31.6071 78.5521 31.6071 84.1602 37.1788C89.7683 42.7504 89.7684 51.7839 84.1602 57.3556L54.515 86.8081ZM52.3149 53.7038L66.3997 39.7106C70.6004 35.5372 77.4111 35.5372 81.6118 39.7106C85.8125 43.884 85.8125 50.6504 81.6118 54.8237L67.527 68.817L52.3149 53.7038ZM50.8734 57.7936C51.5771 58.4928 51.5771 59.6263 50.8734 60.3254L40.1956 70.9339C38.5512 72.5676 37.8649 74.7918 38.1407 76.9246C38.2675 77.9053 37.5701 78.8024 36.583 78.9284C35.5958 79.0544 34.6929 78.3615 34.5661 77.3808C34.1542 74.1952 35.1799 70.8533 37.6472 68.4021L48.325 57.7936C49.0287 57.0945 50.1697 57.0945 50.8734 57.7936Z" fill="#019D86"/>
<path fill-rule="evenodd" clip-rule="evenodd" d="M88.7939 66.6444L84.6214 62.4991L64.3126 82.6759L68.485 86.8212C74.0932 92.3929 83.1858 92.3929 88.7939 86.8212C94.402 81.2496 94.402 72.2161 88.7939 66.6444ZM83.7558 72.9017C84.4596 72.2026 84.4596 71.069 83.7558 70.3699C83.0521 69.6707 81.9112 69.6707 81.2075 70.3699L72.2349 79.2841C71.5312 79.9833 71.5312 81.1168 72.2349 81.8159C72.9386 82.5151 74.0796 82.5151 74.7833 81.8159L83.7558 72.9017Z" fill="#019D86"/>
</svg>
