<svg width="124" height="124" viewBox="0 0 124 124" fill="none" xmlns="http://www.w3.org/2000/svg">
<path d="M45.4578 63.5633L37.8302 81.4284L62.7875 99M45.4578 63.5633L51.1686 50.1875M45.4578 63.5633L62.7875 99M45.4578 63.5633L35 42.1787M51.1686 50.1875L60.2146 29M51.1686 50.1875L35 42.1787M51.1686 50.1875L78.1242 63.5394M60.2146 29L85.6929 46.0395M60.2146 29L35 42.1787M85.6929 46.0395L93 70.9079M85.6929 46.0395L78.1242 63.5394M93 70.9079L62.7875 99M93 70.9079L78.1242 63.5394M62.7875 99L78.1242 63.5394" stroke="#019D86" stroke-width="6" stroke-linecap="round" stroke-linejoin="round"/>
</svg>
