<svg width="124" height="124" viewBox="0 0 124 124" fill="none" xmlns="http://www.w3.org/2000/svg">
<path fill-rule="evenodd" clip-rule="evenodd" d="M74.1 61.5C74.1 68.4588 68.4588 74.1 61.5 74.1C54.5412 74.1 48.9 68.4588 48.9 61.5C48.9 54.5413 54.5412 48.9 61.5 48.9C68.4588 48.9 74.1 54.5413 74.1 61.5ZM56.0769 59.6654C55 59.6654 54.1269 60.5384 54.1269 61.6154C54.1269 62.6923 55 63.5654 56.0769 63.5654H60.05V67.5385C60.05 68.6154 60.923 69.4885 62 69.4885C63.077 69.4885 63.95 68.6154 63.95 67.5385V63.5654H67.9231C69 63.5654 69.8731 62.6923 69.8731 61.6154C69.8731 60.5384 69 59.6654 67.9231 59.6654H63.95V55.6923C63.95 54.6154 63.077 53.7423 62 53.7423C60.923 53.7423 60.05 54.6153 60.05 55.6923V59.6654H56.0769Z" fill="#019D86"/>
<path fill-rule="evenodd" clip-rule="evenodd" d="M62.3814 97.9342V97.9375C65.6585 96.8419 89 88.1562 89 62.5316V39.603C89.0007 39.3081 88.9004 39.0215 88.715 38.7888C88.5297 38.5561 88.27 38.3909 87.9774 38.3193L62.3274 32.0394C62.1124 31.9869 61.8876 31.9869 61.6726 32.0394L36.0226 38.3193C35.73 38.3909 35.4703 38.5561 35.285 38.7888C35.0996 39.0215 34.9993 39.3081 35 39.603V62.5316C35 87.9021 58.3449 96.8122 61.6186 97.9342C61.865 98.0219 62.135 98.0219 62.3814 97.9342ZM78 61.5C78 70.6127 70.6127 78 61.5 78C52.3873 78 45 70.6127 45 61.5C45 52.3873 52.3873 45 61.5 45C70.6127 45 78 52.3873 78 61.5Z" fill="#019D86"/>
<path d="M87.3111 87.8125C87.3111 87.3631 86.9481 87 86.4987 87C86.0494 87 85.6864 87.3631 85.6864 87.8125V88.1045C85.6864 89.3715 84.1556 90.0062 83.2595 89.11L83.0514 88.9043C82.734 88.5869 82.2212 88.5869 81.9039 88.9043C81.5866 89.2217 81.5866 89.7371 81.9039 90.0545L82.1121 90.2627C83.0057 91.1564 82.371 92.6875 81.1043 92.6875H80.8123C80.363 92.6875 80 93.0506 80 93.5C80 93.9494 80.363 94.3125 80.8123 94.3125H81.1043C82.371 94.3125 83.0057 95.8436 82.1096 96.7398L81.9039 96.948C81.5866 97.2654 81.5866 97.7809 81.9039 98.0982C82.2212 98.4156 82.7366 98.4156 83.0539 98.0982L83.2621 97.89C84.1582 96.9938 85.6889 97.6285 85.6889 98.8955V99.1875C85.6889 99.6369 86.0519 100 86.5013 100C86.9506 100 87.3136 99.6369 87.3136 99.1875V98.8955C87.3136 97.6285 88.8444 96.9938 89.7405 97.89L89.9486 98.0982C90.266 98.4156 90.7813 98.4156 91.0986 98.0982C91.4159 97.7809 91.4159 97.2654 91.0986 96.948L90.8904 96.7398C89.9943 95.8436 90.629 94.3125 91.8957 94.3125H92.1877C92.637 94.3125 93 93.9494 93 93.5C93 93.0506 92.637 92.6875 92.1877 92.6875H91.8957C90.629 92.6875 89.9943 91.1564 90.8904 90.2602L91.0986 90.052C91.4159 89.7346 91.4159 89.2191 91.0986 88.9018C90.7813 88.5844 90.266 88.5844 89.9486 88.9018L89.7405 89.11C88.8418 90.0062 87.3111 89.3715 87.3111 88.1045V87.8125ZM84.4679 92.6875C84.4679 92.5275 84.4994 92.369 84.5606 92.2211C84.6219 92.0732 84.7116 91.9389 84.8248 91.8257C84.9379 91.7125 85.0723 91.6228 85.2201 91.5615C85.3679 91.5003 85.5264 91.4688 85.6864 91.4688C85.8464 91.4688 86.0049 91.5003 86.1527 91.5615C86.3005 91.6228 86.4349 91.7125 86.548 91.8257C86.6612 91.9389 86.7509 92.0732 86.8121 92.2211C86.8734 92.369 86.9049 92.5275 86.9049 92.6875C86.9049 92.8475 86.8734 93.006 86.8121 93.1539C86.7509 93.3018 86.6612 93.4361 86.548 93.5493C86.4349 93.6625 86.3005 93.7522 86.1527 93.8135C86.0049 93.8747 85.8464 93.9062 85.6864 93.9062C85.5264 93.9062 85.3679 93.8747 85.2201 93.8135C85.0723 93.7522 84.9379 93.6625 84.8248 93.5493C84.7116 93.4361 84.6219 93.3018 84.5606 93.1539C84.4994 93.006 84.4679 92.8475 84.4679 92.6875ZM87.7172 94.1094C87.8788 94.1094 88.0338 94.1736 88.148 94.2879C88.2623 94.4021 88.3265 94.5571 88.3265 94.7188C88.3265 94.8804 88.2623 95.0354 88.148 95.1496C88.0338 95.2639 87.8788 95.3281 87.7172 95.3281C87.5557 95.3281 87.4007 95.2639 87.2864 95.1496C87.1722 95.0354 87.108 94.8804 87.108 94.7188C87.108 94.5571 87.1722 94.4021 87.2864 94.2879C87.4007 94.1736 87.5557 94.1094 87.7172 94.1094Z" fill="#019D86"/>
<path d="M23.9982 71C23.9982 70.4469 23.5515 70 22.9984 70C22.4454 70 21.9986 70.4469 21.9986 71V71.3594C21.9986 72.9188 20.1146 73.7 19.0117 72.5969L18.7555 72.3438C18.365 71.9531 17.7338 71.9531 17.3433 72.3438C16.9527 72.7344 16.9527 73.3688 17.3433 73.7594L17.5995 74.0156C18.6993 75.1156 17.9182 77 16.3591 77H15.9998C15.4468 77 15 77.4469 15 78C15 78.5531 15.4468 79 15.9998 79H16.3591C17.9182 79 18.6993 80.8844 17.5964 81.9875L17.3433 82.2438C16.9527 82.6344 16.9527 83.2688 17.3433 83.6594C17.7338 84.05 18.3681 84.05 18.7586 83.6594L19.0148 83.4031C20.1178 82.3 22.0018 83.0813 22.0018 84.6406V85C22.0018 85.5531 22.4485 86 23.0016 86C23.5546 86 24.0014 85.5531 24.0014 85V84.6406C24.0014 83.0813 25.8854 82.3 26.9883 83.4031L27.2445 83.6594C27.635 84.05 28.2693 84.05 28.6598 83.6594C29.0504 83.2688 29.0504 82.6344 28.6598 82.2438L28.4036 81.9875C27.3007 80.8844 28.0818 79 29.6409 79H30.0002C30.5532 79 31 78.5531 31 78C31 77.4469 30.5532 77 30.0002 77H29.6409C28.0818 77 27.3007 75.1156 28.4036 74.0125L28.6598 73.7562C29.0504 73.3656 29.0504 72.7313 28.6598 72.3406C28.2693 71.95 27.635 71.95 27.2445 72.3406L26.9883 72.5969C25.8823 73.7 23.9982 72.9188 23.9982 71.3594V71ZM20.4989 77C20.4989 76.803 20.5377 76.608 20.6131 76.426C20.6885 76.244 20.7989 76.0786 20.9382 75.9393C21.0774 75.8001 21.2428 75.6896 21.4247 75.6142C21.6067 75.5388 21.8017 75.5 21.9986 75.5C22.1956 75.5 22.3906 75.5388 22.5725 75.6142C22.7545 75.6896 22.9198 75.8001 23.0591 75.9393C23.1983 76.0786 23.3088 76.244 23.3842 76.426C23.4595 76.608 23.4983 76.803 23.4983 77C23.4983 77.197 23.4595 77.392 23.3842 77.574C23.3088 77.756 23.1983 77.9214 23.0591 78.0607C22.9198 78.2 22.7545 78.3104 22.5725 78.3858C22.3906 78.4612 22.1956 78.5 21.9986 78.5C21.8017 78.5 21.6067 78.4612 21.4247 78.3858C21.2428 78.3104 21.0774 78.2 20.9382 78.0607C20.7989 77.9214 20.6885 77.756 20.6131 77.574C20.5377 77.392 20.4989 77.197 20.4989 77ZM24.4981 78.75C24.697 78.75 24.8877 78.829 25.0284 78.9697C25.169 79.1103 25.248 79.3011 25.248 79.5C25.248 79.6989 25.169 79.8897 25.0284 80.0303C24.8877 80.171 24.697 80.25 24.4981 80.25C24.2993 80.25 24.1085 80.171 23.9679 80.0303C23.8273 79.8897 23.7483 79.6989 23.7483 79.5C23.7483 79.3011 23.8273 79.1103 23.9679 78.9697C24.1085 78.829 24.2993 78.75 24.4981 78.75Z" fill="#019D86"/>
<path d="M86.9982 14C86.9982 13.4469 86.5515 13 85.9984 13C85.4454 13 84.9986 13.4469 84.9986 14V14.3594C84.9986 15.9188 83.1146 16.7 82.0117 15.5969L81.7555 15.3438C81.365 14.9531 80.7338 14.9531 80.3433 15.3438C79.9527 15.7344 79.9527 16.3688 80.3433 16.7594L80.5995 17.0156C81.6993 18.1156 80.9182 20 79.3591 20H78.9998C78.4468 20 78 20.4469 78 21C78 21.5531 78.4468 22 78.9998 22H79.3591C80.9182 22 81.6993 23.8844 80.5964 24.9875L80.3433 25.2437C79.9527 25.6344 79.9527 26.2688 80.3433 26.6594C80.7338 27.05 81.3681 27.05 81.7586 26.6594L82.0148 26.4031C83.1178 25.3 85.0018 26.0813 85.0018 27.6406V28C85.0018 28.5531 85.4485 29 86.0016 29C86.5546 29 87.0014 28.5531 87.0014 28V27.6406C87.0014 26.0813 88.8854 25.3 89.9883 26.4031L90.2445 26.6594C90.635 27.05 91.2693 27.05 91.6598 26.6594C92.0504 26.2688 92.0504 25.6344 91.6598 25.2437L91.4036 24.9875C90.3007 23.8844 91.0818 22 92.6409 22H93.0002C93.5532 22 94 21.5531 94 21C94 20.4469 93.5532 20 93.0002 20H92.6409C91.0818 20 90.3007 18.1156 91.4036 17.0125L91.6598 16.7562C92.0504 16.3656 92.0504 15.7313 91.6598 15.3406C91.2693 14.95 90.635 14.95 90.2445 15.3406L89.9883 15.5969C88.8822 16.7 86.9982 15.9188 86.9982 14.3594V14ZM83.4989 20C83.4989 19.803 83.5377 19.608 83.6131 19.426C83.6885 19.244 83.7989 19.0786 83.9382 18.9393C84.0774 18.8001 84.2428 18.6896 84.4247 18.6142C84.6067 18.5388 84.8017 18.5 84.9986 18.5C85.1956 18.5 85.3906 18.5388 85.5725 18.6142C85.7545 18.6896 85.9198 18.8001 86.0591 18.9393C86.1983 19.0786 86.3088 19.244 86.3842 19.426C86.4596 19.608 86.4983 19.803 86.4983 20C86.4983 20.197 86.4596 20.392 86.3842 20.574C86.3088 20.756 86.1983 20.9214 86.0591 21.0607C85.9198 21.1999 85.7545 21.3104 85.5725 21.3858C85.3906 21.4612 85.1956 21.5 84.9986 21.5C84.8017 21.5 84.6067 21.4612 84.4247 21.3858C84.2428 21.3104 84.0774 21.1999 83.9382 21.0607C83.7989 20.9214 83.6885 20.756 83.6131 20.574C83.5377 20.392 83.4989 20.197 83.4989 20ZM87.4981 21.75C87.697 21.75 87.8877 21.829 88.0284 21.9697C88.169 22.1103 88.248 22.3011 88.248 22.5C88.248 22.6989 88.169 22.8897 88.0284 23.0303C87.8877 23.171 87.697 23.25 87.4981 23.25C87.2993 23.25 87.1085 23.171 86.9679 23.0303C86.8273 22.8897 86.7483 22.6989 86.7483 22.5C86.7483 22.3011 86.8273 22.1103 86.9679 21.9697C87.1085 21.829 87.2993 21.75 87.4981 21.75Z" fill="#019D86"/>
</svg>
