<svg width="124" height="124" viewBox="0 0 124 124" fill="none" xmlns="http://www.w3.org/2000/svg">
<path d="M57.3911 41.3564C57.8794 41.048 58.7019 40.6625 59.1902 40.4826C59.6786 40.3027 60.8351 40.1741 61.7604 40.1484C62.6857 40.1484 63.9451 40.3284 64.5877 40.534C65.2302 40.7396 66.3097 41.3564 67.0037 41.8962C67.8518 42.513 68.5715 43.4126 69.1883 44.5178C70.0365 46.0599 70.1136 46.3426 70.1136 48.3731C70.1136 50.2237 70.0108 50.7891 69.4197 51.9714C69.0341 52.8196 68.186 53.8734 67.3635 54.6187C66.6181 55.3127 65.4872 56.0581 63.6881 56.7263L66.9008 56.8548C69.7024 56.9576 70.2935 57.0861 71.5272 57.6773C72.2983 58.0371 73.4035 58.8596 73.9432 59.4764C74.5087 60.0676 75.2283 61.1471 75.5625 61.8667C76.0508 62.9462 76.2564 64.257 76.7962 70.0914C77.1303 73.8953 77.4644 77.4936 77.67 79.0872L75.4339 79.3956C74.2002 79.5755 72.2726 80.0124 71.1417 80.398C70.0108 80.7835 68.1602 81.5546 67.0294 82.12C65.8985 82.6854 64.2792 83.585 63.4311 84.1248C62.5829 84.6645 61.7861 85.1271 61.6319 85.1271C61.4777 85.1271 60.7837 84.7416 60.0898 84.2533C59.3701 83.7906 57.7509 82.8654 56.4915 82.2228C55.2321 81.5803 53.3044 80.7578 52.2506 80.398C51.1968 80.0381 49.3977 79.6269 48.2668 79.447C47.1359 79.2928 46.1849 79.1386 46.1335 79.1129C46.1078 79.1129 46.3649 75.6174 46.7504 71.3765C47.2644 65.5164 47.5471 63.3318 47.9584 62.2523C48.2925 61.3527 48.9608 60.3503 49.7832 59.4764C50.5286 58.7054 51.6338 57.8829 52.3791 57.5745C53.3815 57.1375 54.3325 56.9833 59.8328 56.7777L58.085 55.9295C56.9027 55.3127 56.0546 54.6701 55.3863 53.822C54.8465 53.1537 54.204 51.9714 53.947 51.2003C53.5871 50.1466 53.4843 49.2984 53.5871 47.8591C53.6643 46.5997 53.8956 45.5716 54.2554 44.8262C54.5638 44.2351 55.2064 43.3355 55.6433 42.8215C56.106 42.3074 56.9027 41.6392 57.3911 41.3564Z" fill="#019D86"/>
<path d="M41.3529 83.2509C41.8927 82.8654 42.7666 82.4284 43.2549 82.2999C43.7432 82.1714 45.1826 82.12 46.4677 82.1714C48.0098 82.2485 49.5262 82.5055 50.9655 82.9682C52.1735 83.328 53.8442 83.9963 54.6923 84.4075C55.5405 84.8444 56.9284 85.5898 59.3187 87.0034L58.2906 87.8002C57.7252 88.2371 56.0803 89.6764 51.9936 93.3518H47.8042H47.8041C43.7689 93.3518 43.589 93.3518 42.2268 92.6579C41.3015 92.1695 40.5562 91.5527 40.0421 90.833C39.3996 89.9077 39.2454 89.3937 39.194 88.0058C39.1169 86.5665 39.2197 86.0781 39.708 85.1271C40.0678 84.4846 40.7875 83.6364 41.3529 83.2509Z" fill="#019D86"/>
<path d="M71.2702 83.2766C72.0413 82.9939 73.5063 82.6083 74.483 82.4027C75.4596 82.2228 77.156 82.0943 78.2098 82.12C79.6748 82.1714 80.4202 82.3513 81.294 82.8397C81.9109 83.1738 82.7848 83.9706 83.2217 84.5617C83.8128 85.4099 84.0185 86.0524 84.0956 87.1319C84.147 87.9544 84.0442 89.0596 83.8385 89.625C83.6586 90.1905 83.196 90.9872 82.8362 91.3985C82.4763 91.8097 81.6025 92.4266 79.6234 93.3518L56.2345 93.3261L57.6481 92.0153C58.4191 91.2957 59.9356 90.0363 60.9894 89.2395C62.0431 88.4427 63.7395 87.2604 64.7162 86.6179C65.6928 85.9753 67.2607 85.0757 68.186 84.6131C69.1112 84.1505 70.4991 83.5336 71.2702 83.2766Z" fill="#019D86"/>
<path fill-rule="evenodd" clip-rule="evenodd" d="M61.6835 34.168C53.7666 34.168 47.3486 40.5859 47.3486 48.5029C47.3486 49.9131 47.5515 51.2715 47.9281 52.5529C48.3174 53.8776 47.5591 55.267 46.2344 55.6563C44.9097 56.0456 43.5202 55.2873 43.1309 53.9626C42.6212 52.2282 42.3486 50.3952 42.3486 48.5029C42.3486 37.8245 51.0052 29.168 61.6835 29.168C72.3619 29.168 81.0184 37.8245 81.0184 48.5029C81.0184 50.3952 80.7458 52.2282 80.2361 53.9626C79.8468 55.2873 78.4574 56.0456 77.1327 55.6563C75.808 55.267 75.0497 53.8776 75.439 52.5529C75.8155 51.2715 76.0184 49.9131 76.0184 48.5029C76.0184 40.5859 69.6005 34.168 61.6835 34.168Z" fill="#019D86"/>
<path fill-rule="evenodd" clip-rule="evenodd" d="M45.5073 28.8691C46.4857 29.8433 46.489 31.4262 45.5148 32.4046C41.4035 36.5335 38.8667 42.2199 38.8667 48.5036C38.8667 52.7836 40.0428 56.7813 42.088 60.1996C42.7969 61.3844 42.411 62.9196 41.2262 63.6285C40.0414 64.3374 38.5062 63.9516 37.7973 62.7667C35.3009 58.5942 33.8667 53.7126 33.8667 48.5036C33.8667 40.8445 36.9655 33.9044 41.9717 28.8766C42.946 27.8982 44.5289 27.8949 45.5073 28.8691ZM77.8593 28.8691C78.8377 27.8949 80.4206 27.8982 81.3948 28.8766C86.4011 33.9044 89.4999 40.8445 89.4999 48.5036C89.4999 53.7126 88.0657 58.5942 85.5693 62.7667C84.8604 63.9516 83.3252 64.3374 82.1404 63.6285C80.9556 62.9196 80.5697 61.3844 81.2786 60.1996C83.3238 56.7813 84.4999 52.7836 84.4999 48.5036C84.4999 42.2199 81.9631 36.5335 77.8518 32.4046C76.8775 31.4262 76.8809 29.8433 77.8593 28.8691Z" fill="#019D86"/>
</svg>
