<svg width="124" height="124" viewBox="0 0 124 124" fill="none" xmlns="http://www.w3.org/2000/svg">
<path fill-rule="evenodd" clip-rule="evenodd" d="M80.6911 30H86.9182C90.3492 30 93.1453 30.0123 93.1453 30.037C93.1575 30.0493 91.6435 32.6235 89.7875 35.7642C87.9438 38.8927 86.4298 41.4792 86.4298 41.5161C86.4298 41.5531 88.127 41.5777 94 41.5777V45.2727H86.9792C83.1209 45.2727 79.9829 45.2358 79.9951 45.1742C80.0195 45.1249 81.5336 42.5507 83.3529 39.4469C85.1844 36.3554 86.674 33.7935 86.674 33.7566C86.674 33.7196 85.3309 33.695 80.6911 33.695V30ZM61.5214 36.8111C62.022 36.7988 62.7302 36.8358 63.7192 36.9589L62.5348 37.8827C61.8877 38.3877 60.8987 39.3114 60.3248 39.915C59.7509 40.5308 58.9695 41.4422 58.591 41.9472C58.2247 42.4522 57.6142 43.376 57.2479 43.9795C56.8816 44.5953 56.3565 45.6176 56.0757 46.2581C55.7949 46.8985 55.3919 47.9824 55.1966 48.6598C54.989 49.3372 54.7326 50.3226 54.6227 50.8522C54.525 51.3695 54.3785 52.3672 54.3052 53.0692C54.2198 53.8082 54.1954 55.0276 54.2442 56.0499C54.2808 56.9982 54.4029 58.2792 54.5006 58.8827C54.5983 59.4862 54.8181 60.4962 54.989 61.0997C55.1477 61.7032 55.453 62.627 55.6361 63.132C55.8315 63.637 56.2222 64.5114 56.5031 65.078C56.7717 65.6323 57.2357 66.4575 57.5043 66.9255C57.7851 67.3812 58.3468 68.1941 58.7619 68.7361C59.1648 69.278 60.0195 70.251 60.6667 70.8915C61.3016 71.532 62.2662 72.3941 62.8034 72.8129C63.3407 73.2194 64.1343 73.7736 64.5739 74.0569C65.0134 74.3279 65.8315 74.7836 66.4054 75.0792C66.9792 75.3625 67.9683 75.7936 68.6032 76.0276C69.2381 76.2493 70.1783 76.5449 70.6789 76.6804C71.1795 76.8035 72.1441 77.0006 72.8156 77.0991C73.4872 77.1977 74.5617 77.3085 75.1966 77.3578C75.8315 77.3947 77.0159 77.3701 77.8217 77.2962C78.6276 77.2223 79.7021 77.0868 80.2027 76.9883C80.7033 76.9021 81.558 76.6927 82.0952 76.5449C82.6325 76.3971 83.6459 76.0399 84.3541 75.7566C85.0623 75.4733 86.0147 75.0176 86.4908 74.7713C86.967 74.5126 87.4921 74.1924 87.6874 74.0692C87.8706 73.946 88.0659 73.8475 88.1392 73.8475C88.2125 73.8475 88.0904 74.3032 87.895 74.8698C87.6874 75.424 87.199 76.5449 86.7961 77.3578C86.4054 78.1707 85.685 79.4393 85.1966 80.1906C84.7204 80.9419 84.0122 81.9273 83.6459 82.4076C83.2674 82.888 82.3883 83.8733 81.6801 84.6C80.9719 85.339 79.9219 86.312 79.348 86.7677C78.7741 87.2358 77.8095 87.9378 77.2112 88.3566C76.6129 88.7631 75.4774 89.4405 74.7082 89.8469C73.9389 90.2534 72.7546 90.8076 72.083 91.0786C71.4115 91.3372 70.2882 91.7191 69.58 91.9284C68.8718 92.1378 67.8584 92.3842 67.3211 92.495C66.7839 92.5935 65.9048 92.7537 65.3675 92.8399C64.8059 92.9261 63.3162 93 61.8266 93C59.9341 93 58.8962 92.9384 57.8584 92.7783C57.0891 92.6551 56.0147 92.4457 55.4774 92.3226C54.9402 92.1994 53.9512 91.9161 53.2796 91.6944C52.6081 91.485 51.5092 91.0663 50.8376 90.783C50.1661 90.4874 49.0916 89.9578 48.4567 89.6129C47.8217 89.2557 46.8571 88.6768 46.3199 88.3073C45.7827 87.9501 44.8791 87.2727 44.3053 86.817C43.7314 86.3613 42.7424 85.4499 42.1074 84.8094C41.4725 84.1689 40.569 83.1713 40.1172 82.5924C39.6654 82.0135 38.9939 81.1021 38.6398 80.5601C38.2735 80.0182 37.6996 79.0452 37.3455 78.4047C37.0037 77.7642 36.4786 76.6804 36.1856 76.0029C35.9048 75.3255 35.4896 74.217 35.2821 73.5396C35.0623 72.8622 34.7814 71.8645 34.6593 71.3226C34.5372 70.7806 34.3297 69.6968 34.2076 68.9208C34.0488 67.8985 34 66.79 34 64.9179C34 63.0581 34.0611 61.9372 34.2076 60.915C34.3297 60.139 34.5739 58.9196 34.7448 58.2053C34.9158 57.4909 35.2454 56.3578 35.4774 55.6804C35.7094 55.0029 36.2222 53.7589 36.6252 52.9091C37.0281 52.0592 37.6508 50.9015 37.9927 50.3226C38.3346 49.7437 39.0305 48.7214 39.5311 48.044C40.0317 47.3666 41.0452 46.1842 41.79 45.4205C42.5348 44.6446 43.6459 43.61 44.2442 43.1173C44.8547 42.6246 45.8926 41.8487 46.5641 41.393C47.2357 40.9496 48.5543 40.1982 49.4945 39.7302C50.4347 39.2622 51.7534 38.6956 52.4249 38.4493C53.0965 38.2152 54.2808 37.8581 55.0501 37.661C55.8193 37.4639 57.138 37.2053 57.9805 37.0944C58.823 36.9836 59.7509 36.885 60.0562 36.8604C60.3614 36.8358 61.0208 36.8111 61.5214 36.8111ZM64.5739 44.0411H70.1905C75.4896 44.0411 75.8071 44.0534 75.7338 44.2504C75.6972 44.3736 74.5372 46.3689 73.1697 48.6845C71.8022 51.0123 70.6789 52.9337 70.6789 52.9707C70.6789 53.0076 71.8266 53.0323 75.8071 53.0323V56.7273H70.0684C64.6716 56.7273 64.3297 56.715 64.3663 56.5179C64.3907 56.3947 65.5262 54.424 66.8694 52.1455C68.2247 49.8545 69.3358 47.9331 69.3358 47.8592C69.3358 47.7853 68.4567 47.7361 64.5739 47.7361V44.0411ZM76.5275 59.437H86.0635L84.4151 62.2082C83.5116 63.7355 82.7668 65.0041 82.7668 65.0411C82.7668 65.078 83.536 65.1026 86.1856 65.1026V68.7977H81.3016C77.4799 68.7977 76.4176 68.7607 76.4176 68.6375C76.4176 68.5636 77.1258 67.295 79.5678 63.1936L76.6007 63.0704L76.5275 59.437Z" fill="#019D86"/>
</svg>
