<svg width="124" height="124" viewBox="0 0 124 124" fill="none" xmlns="http://www.w3.org/2000/svg">
<path d="M63.3736 29.683C63.6567 29.4917 64.1337 29.2732 64.4168 29.1776C64.7 29.082 64.9683 29.0137 65.013 29C65.0577 29 65.5197 29.1093 66.0563 29.2595C66.5928 29.4098 67.1592 29.6283 67.3231 29.7376C67.4871 29.8605 67.9491 29.9561 68.3664 29.9561C68.7837 29.9698 69.2308 30.0108 69.3799 30.0654C69.5289 30.12 70.3039 30.721 71.0938 31.3903C71.8837 32.0733 73.1357 33.1797 73.8809 33.849C74.9689 34.8461 75.4011 35.3788 76.191 36.6491C76.7126 37.5096 77.4876 38.8345 77.9049 39.5858C78.3223 40.337 79.1867 42.2356 79.8425 43.8201C80.7665 46.0465 81.78 48.0544 84.3584 52.7667C86.1766 56.1132 88.0695 59.7738 88.5464 60.8939C89.0382 62.0276 89.7387 63.8306 90.1113 64.9233C90.4988 66.016 91.1397 68.1332 91.5421 69.6357C91.9445 71.1382 92.4214 73.228 92.5854 74.2798C92.7493 75.3315 92.9281 77.0525 92.9729 78.1043C93.0325 79.197 92.9878 80.6858 92.8983 81.5873C92.7642 82.8167 92.645 83.3357 92.3022 83.9777C92.0786 84.4284 91.5719 85.1797 91.1844 85.6577C90.8118 86.1221 90.0815 86.7914 89.5598 87.1329C89.0531 87.4744 88.0247 88.0208 87.2944 88.3486C86.5641 88.6627 85.2228 89.1408 84.3136 89.414C83.4045 89.6872 82.1079 90.0423 81.4074 90.2062C80.7069 90.3565 79.1718 90.6706 77.9795 90.8755C76.7871 91.094 74.939 91.5448 73.8809 91.8863C72.8227 92.2141 71.1683 92.6512 70.2294 92.8424C69.2904 93.0336 67.6361 93.3205 66.5779 93.4707C65.5197 93.621 63.5375 93.8122 62.1812 93.9078C60.2586 94.0307 59.3346 94.0307 57.9336 93.9078C56.95 93.8122 55.3701 93.58 54.4312 93.3888C53.4922 93.1839 52.1062 92.8561 51.3759 92.6239C50.6456 92.4053 49.2595 91.9272 48.3206 91.5584C47.3816 91.1897 45.9806 90.575 43.8494 89.5096L42.9998 89.7691C42.5229 89.9194 41.733 90.0969 41.2412 90.1652C40.7493 90.2472 39.9147 90.2745 39.3782 90.2472C38.8416 90.2199 38.0815 90.1106 37.6642 89.9877C37.2618 89.8784 36.6806 89.6052 36.3974 89.3867C36.0993 89.1681 35.6075 88.5398 35.2498 87.9251C34.907 87.3378 34.4599 86.4226 34.2363 85.8899C34.0276 85.3572 33.5805 84.0733 33.2526 83.0215C32.9248 81.9698 32.4329 80.0712 32.1497 78.7872C31.8666 77.5033 31.494 75.4817 31.3151 74.2798C31.1065 72.7909 31.0021 71.3021 31.0021 69.6357C30.9872 67.5868 31.0469 67.0131 31.2853 66.1526C31.4642 65.5926 31.8517 64.6638 32.1497 64.1038C32.4627 63.5437 32.9993 62.8061 33.3421 62.4647C33.6998 62.1232 34.3406 61.6724 34.7728 61.4539C35.2945 61.1944 36.0099 60.9895 36.77 60.8802C37.4258 60.7846 38.7671 60.73 39.7508 60.7573C40.7344 60.7846 42.046 60.9075 42.657 61.0305C43.2681 61.1534 44.2816 61.3993 44.8926 61.5905C45.5037 61.7817 46.6513 62.2461 47.4263 62.6149C48.2013 62.9974 49.3638 63.653 50.0196 64.0764C50.6605 64.4999 51.7336 65.3467 52.4191 65.9477C53.0898 66.5487 53.8797 67.3 54.7293 68.2015L55.7278 67.8463C56.2942 67.6414 57.3077 67.3956 58.0081 67.2863C58.8875 67.1361 59.7966 67.0951 60.9889 67.1497C61.9279 67.1907 63.2096 67.3273 63.8207 67.4502C64.4318 67.5595 65.5794 67.8463 66.3544 68.0649C67.1294 68.2834 68.7539 68.8298 69.9611 69.2805C71.1833 69.7449 72.1818 70.1001 72.2116 70.0864C72.2414 70.0591 72.1818 68.7615 72.0775 67.177C71.9905 65.6363 71.8613 63.6823 71.7994 62.7467L71.7943 62.6696C71.7347 61.7681 71.6006 59.8012 71.5111 58.2987C71.4068 56.7962 71.3025 54.0917 71.2876 52.2887C71.2727 50.4857 71.1982 48.5461 71.1236 47.9861C71.0491 47.4261 70.915 46.7568 70.8405 46.5246C70.751 46.2787 70.5424 46.0192 70.3784 45.9372C70.2145 45.8553 69.7972 45.8006 69.4544 45.8006C69.0967 45.8006 68.3068 45.6914 67.6957 45.5411C67.0847 45.4045 64.9981 44.7216 63.0755 44.0386C61.1529 43.342 59.1706 42.6317 58.6788 42.4542C58.187 42.2629 57.4865 41.8805 57.1288 41.6073C56.7711 41.3205 56.3836 40.9244 56.2793 40.7195C56.16 40.5009 56.0706 40.0911 56.0706 39.7906C56.0706 39.3536 56.1749 39.135 57.099 38.2199L56.5625 36.9905C56.2644 36.3213 55.9663 35.4198 55.8769 35.01C55.7427 34.3953 55.7576 34.1495 55.9663 33.6168C56.1004 33.248 56.3389 32.9065 56.473 32.8382C56.6221 32.7699 57.3822 32.5514 58.1572 32.3465C58.9322 32.1416 59.8711 31.8411 60.2437 31.6635C60.6163 31.4996 61.3466 31.0489 61.8832 30.6801C62.4197 30.3113 63.0904 29.8605 63.3736 29.683Z" fill="#019D86"/>
</svg>
