<svg width="124" height="124" viewBox="0 0 124 124" fill="none" xmlns="http://www.w3.org/2000/svg">
<path d="M27.9927 60.1452C27.0544 60.2254 25.3184 60.4659 24.161 60.7065C23.0037 60.931 22.0341 61.1394 22.0028 61.1555C21.9715 61.1555 22.2061 62.0535 22.5189 63.1439C22.8161 64.2183 23.2696 65.6294 23.5198 66.2708C23.7701 66.8962 24.2236 67.9706 24.5208 68.6281C24.8179 69.2855 25.4278 70.4882 25.8658 71.2739C26.3193 72.0597 27.0856 73.2944 27.5705 73.984C28.0553 74.6895 29.1657 76.0205 30.0259 76.9345C30.886 77.8646 32.0434 78.9871 32.6064 79.4521C33.1694 79.9172 34.2172 80.6869 34.9523 81.1679C35.6874 81.665 36.8447 82.3546 37.5328 82.7074C38.221 83.0601 39.4878 83.6054 40.3479 83.91C41.2081 84.2147 42.5844 84.6156 43.3976 84.792C44.2109 84.9844 45.5872 85.1929 46.4473 85.2891C47.3075 85.3693 48.0426 85.4013 48.0895 85.3532C48.1364 85.3051 47.9644 85.1127 47.7141 84.9203C47.4639 84.7439 46.5724 84.0704 45.7592 83.429C44.9303 82.8036 43.7261 81.7452 43.0848 81.1038C42.4436 80.4624 41.474 79.388 40.9266 78.7305C40.3792 78.0731 39.4878 76.8383 38.9404 76.0045C38.4086 75.1706 37.5954 73.7274 37.1418 72.7973C36.6883 71.8673 36.0783 70.5042 35.7968 69.7506C35.5153 68.9969 35.0774 67.5537 34.8115 66.5434C34.5457 65.5332 34.2329 64.0098 34.1078 63.176C33.9827 62.3421 33.8263 61.3319 33.7793 60.931L33.7011 60.2094C31.8244 60.0169 30.9173 59.9849 30.495 59.9849C30.0728 60.0009 28.9311 60.0811 27.9927 60.1452ZM91.145 60.0811L90.3161 60.1292C90.191 61.3158 90.0346 62.3421 89.9095 63.176C89.7844 64.0098 89.4716 65.5332 89.2057 66.5434C88.9398 67.5537 88.5019 68.9969 88.2204 69.7506C87.9233 70.5042 87.329 71.8673 86.8754 72.7973C86.4219 73.7274 85.6555 75.0904 85.1707 75.8441C84.6859 76.5978 83.9665 77.6401 83.5442 78.1693C83.1376 78.6984 82.2931 79.6606 81.6675 80.318C81.0419 80.9595 80.0879 81.9056 79.5249 82.4027C78.9618 82.8998 77.9296 83.7176 77.2102 84.2307C76.5064 84.7278 75.9278 85.225 75.9278 85.3051C75.9278 85.4013 76.178 85.4334 76.5064 85.3853C76.8349 85.3532 77.5543 85.2731 78.1173 85.225C78.6803 85.1608 79.8064 84.9684 80.6196 84.792C81.4329 84.6156 82.8092 84.2147 83.6693 83.91C84.5295 83.6054 85.7963 83.0601 86.4844 82.7074C87.1726 82.3546 88.3299 81.665 89.0649 81.1679C89.8 80.6869 90.8791 79.869 91.4891 79.3719C92.099 78.8748 93.2563 77.7363 94.0696 76.8543C94.8828 75.9724 96.0245 74.5773 96.6032 73.7434C97.1819 72.9096 98.2141 71.1136 98.9022 69.7506C99.5747 68.3875 100.404 66.5434 100.716 65.6615C101.029 64.7795 101.467 63.4004 101.67 62.6147C101.874 61.829 102.014 61.1555 101.999 61.1555C101.983 61.1394 101.045 60.947 99.9344 60.7225C98.824 60.498 96.916 60.2254 95.7117 60.1452C94.5075 60.049 93.1625 59.9849 92.7402 60.0009C92.3023 60.0169 91.5829 60.049 91.1294 60.0811H91.145ZM60.6324 39.2027C60.0224 39.8601 59.0058 41.1109 58.3803 41.9608C57.7547 42.8267 56.8789 44.1416 56.441 44.8953C56.0031 45.649 55.3149 46.9318 54.9239 47.7336L54.2045 49.2249C56.0813 50.7323 57.4263 51.967 58.3959 52.9613C59.3812 53.9555 60.5698 55.2864 61.0546 55.9278C61.5551 56.5693 61.9773 57.0984 62.0243 57.0984C62.0712 57.0984 62.5404 56.5372 63.0565 55.8477C63.5882 55.1581 64.683 53.9234 65.4806 53.0895C66.2938 52.2557 67.5606 51.0851 68.3113 50.4918C69.0777 49.8824 69.6876 49.3532 69.6876 49.3051C69.6876 49.257 69.3123 48.4552 68.8431 47.4931C68.3739 46.547 67.5137 45.0236 66.9194 44.0935C66.3251 43.1635 65.465 41.9448 64.9958 41.3675C64.5422 40.7902 63.6664 39.796 63.0565 39.1546C62.4465 38.5131 61.8992 38 61.8522 38C61.7897 38 61.2423 38.5452 60.6324 39.2027ZM39.3626 48.3751C39.2844 48.7118 39.1437 49.3372 39.0498 49.7862C38.956 50.2192 38.8153 51.0209 38.7214 51.5501C38.6432 52.0793 38.5025 53.5385 38.4086 54.7893C38.3148 56.2646 38.2992 57.8361 38.393 59.1991C38.4868 60.3697 38.6589 62.0214 38.7996 62.8552C38.9404 63.6891 39.3001 65.2125 39.6129 66.2227C39.91 67.233 40.52 68.8526 40.9735 69.8307C41.4114 70.8089 42.1934 72.2521 42.6939 73.0379C43.1943 73.8236 44.0232 74.9782 44.5237 75.6036C45.0085 76.229 45.8687 77.159 46.416 77.7042C46.9478 78.2334 47.7454 78.9711 48.1833 79.3238C48.6056 79.6766 49.5909 80.3982 50.3728 80.9114C51.1392 81.4245 52.5467 82.2103 53.5007 82.6753C54.4391 83.1243 55.7059 83.6535 56.3159 83.8619C56.9102 84.0544 57.4263 84.1826 57.4419 84.1506C57.4575 84.1185 57.4106 83.8138 57.3168 83.461C57.2386 83.1082 57.0353 81.9537 56.8632 80.8953C56.6912 79.837 56.5035 77.9929 56.4566 76.8062C56.394 75.5074 56.4253 73.8396 56.5348 72.637C56.6443 71.5305 56.8632 69.943 57.0353 69.1091C57.2073 68.2753 57.5514 66.8641 57.8172 65.9822C58.0831 65.1002 58.5367 63.8013 58.8338 63.0958L59.3812 61.8129C58.4897 60.4499 57.786 59.4717 57.2542 58.7661C56.7068 58.0606 55.6434 56.8579 54.8927 56.1042C54.1263 55.3506 53.0785 54.4045 52.5624 54.0036C52.0463 53.6027 51.0297 52.8811 50.2946 52.4C49.5596 51.9029 48.2302 51.1332 47.3231 50.6682C46.4161 50.2031 45.0867 49.5777 44.3516 49.2731C43.6166 48.9684 42.3029 48.5194 41.4114 48.2628C40.5356 47.9902 39.7536 47.7817 39.6598 47.7817C39.5816 47.7817 39.4408 48.0543 39.3626 48.3751ZM82.3556 48.3269C81.4485 48.6156 80.2286 49.0486 79.6187 49.3051C79.0088 49.5457 77.7576 50.155 76.8036 50.6361C75.8496 51.1172 74.4889 51.9029 73.7539 52.384C73.0188 52.8811 71.8615 53.731 71.1734 54.2762C70.4852 54.8214 69.2497 55.992 68.4365 56.8739C67.6232 57.7399 66.4815 59.135 65.9029 59.9688C65.3242 60.8027 64.3858 62.4383 63.8384 63.5768C63.2754 64.7154 62.6186 66.351 62.3683 67.1849C62.1025 68.0187 61.7897 69.2535 61.6489 69.9109C61.5082 70.5684 61.3205 72.0918 61.211 73.2784C61.0703 74.9621 61.0703 75.9564 61.211 77.6882C61.3205 78.9229 61.5394 80.5907 61.6958 81.3764C61.8679 82.1621 62.1494 83.3488 62.3214 83.9742C62.5716 84.8561 62.7124 85.1448 62.9314 85.1448C63.0721 85.1448 63.8384 85.0005 64.6048 84.8241C65.3711 84.6477 66.6536 84.2788 67.4199 84.0062C68.1862 83.7336 69.5938 83.1403 70.5478 82.6753C71.5018 82.2103 72.9094 81.4245 73.6757 80.9114C74.442 80.3982 75.443 79.6766 75.8652 79.3238C76.3031 78.9711 77.1007 78.2334 77.6325 77.7042C78.1799 77.159 79.04 76.229 79.5249 75.6036C80.0253 74.9782 80.8229 73.8717 81.3078 73.118C81.7769 72.3644 82.5276 71.0013 82.9655 70.0713C83.4035 69.1412 83.9978 67.6339 84.2949 66.7038C84.5921 65.7737 84.983 64.2343 85.1551 63.2561C85.3428 62.278 85.5461 60.6584 85.6243 59.6481C85.7181 58.5577 85.7181 56.7296 85.6243 55.1581C85.5461 53.6989 85.3428 51.7265 85.1707 50.7483C84.9987 49.7702 84.7954 48.7118 84.7015 48.3751C84.5921 47.9742 84.4669 47.7817 84.2793 47.7978C84.1229 47.7978 83.2627 48.0383 82.3556 48.3269Z" fill="#019D86"/>
</svg>
