<svg width="20" height="20" viewBox="0 0 20 20" fill="none" xmlns="http://www.w3.org/2000/svg">
<path opacity="0.5" fill-rule="evenodd" clip-rule="evenodd" d="M0 0.999989C0 0.734775 0.105357 0.480424 0.292893 0.29289C0.48043 0.105356 0.734784 0 1 0H19C19.2652 0 19.5196 0.105356 19.7071 0.29289C19.8946 0.480424 20 0.734775 20 0.999989C20 1.2652 19.8946 1.51955 19.7071 1.70709C19.5196 1.89462 19.2652 1.99998 19 1.99998V12.9999C19 13.2651 18.8946 13.5194 18.7071 13.707C18.5196 13.8945 18.2652 13.9998 18 13.9998H13.387L14.949 18.6838C15.0328 18.9355 15.0132 19.2101 14.8945 19.4474C14.7758 19.6846 14.5677 19.865 14.316 19.9488C14.0643 20.0326 13.7896 20.013 13.5524 19.8943C13.3152 19.7756 13.1348 19.5675 13.051 19.3158L11.28 13.9998H8.722L6.95 19.3158C6.86619 19.5675 6.68583 19.7756 6.4486 19.8943C6.21137 20.013 5.93669 20.0326 5.685 19.9488C5.43331 19.865 5.22522 19.6846 5.10651 19.4474C4.9878 19.2101 4.96819 18.9355 5.052 18.6838L6.613 13.9998H2C1.73478 13.9998 1.48043 13.8945 1.29289 13.707C1.10536 13.5194 1 13.2651 1 12.9999V1.99998C0.734784 1.99998 0.48043 1.89462 0.292893 1.70709C0.105357 1.51955 0 1.2652 0 0.999989ZM15 4.99994C15 4.73473 14.8946 4.48038 14.7071 4.29284C14.5196 4.10531 14.2652 3.99995 14 3.99995C13.7348 3.99995 13.4804 4.10531 13.2929 4.29284C13.1054 4.48038 13 4.73473 13 4.99994V8.9999C13 9.26511 13.1054 9.51946 13.2929 9.707C13.4804 9.89453 13.7348 9.99989 14 9.99989C14.2652 9.99989 14.5196 9.89453 14.7071 9.707C14.8946 9.51946 15 9.26511 15 8.9999V4.99994ZM11 6.99992C11 6.73471 10.8946 6.48036 10.7071 6.29282C10.5196 6.10529 10.2652 5.99993 10 5.99993C9.73478 5.99993 9.48043 6.10529 9.29289 6.29282C9.10536 6.48036 9 6.73471 9 6.99992V8.9999C9 9.26511 9.10536 9.51946 9.29289 9.707C9.48043 9.89453 9.73478 9.99989 10 9.99989C10.2652 9.99989 10.5196 9.89453 10.7071 9.707C10.8946 9.51946 11 9.26511 11 8.9999V6.99992ZM6 7.99991C5.73478 7.99991 5.48043 8.10526 5.29289 8.2928C5.10536 8.48033 5 8.73468 5 8.9999C5 9.26511 5.10536 9.51946 5.29289 9.707C5.48043 9.89453 5.73478 9.99989 6 9.99989H6.01C6.27522 9.99989 6.52957 9.89453 6.71711 9.707C6.90464 9.51946 7.01 9.26511 7.01 8.9999C7.01 8.73468 6.90464 8.48033 6.71711 8.2928C6.52957 8.10526 6.27522 7.99991 6.01 7.99991H6Z" fill="#D2D2FF"/>
</svg>
