<svg width="17" height="20" viewBox="0 0 17 20" fill="none" xmlns="http://www.w3.org/2000/svg">
<path opacity="0.5" fill-rule="evenodd" clip-rule="evenodd" d="M5.66655 0C5.14495 0 4.72211 0.422842 4.72211 0.944444C4.72211 1.46605 5.14495 1.88889 5.66655 1.88889H11.3332C11.8548 1.88889 12.2777 1.46605 12.2777 0.944444C12.2777 0.422842 11.8548 0 11.3332 0H5.66655ZM3.37697 0.942871C3.61201 0.942871 3.77789 1.18029 3.77789 1.41532C3.77789 2.19773 4.41215 2.83199 5.19456 2.83199H11.8057C12.5881 2.83199 13.2223 2.19773 13.2223 1.41532C13.2223 1.18029 13.3882 0.942871 13.6233 0.942871H15C16.1046 0.942871 17 1.8383 17 2.94287V17.8318C17 18.9363 16.1046 19.8318 15 19.8318H2C0.895431 19.8318 0 18.9363 0 17.8318V2.94287C0 1.8383 0.895431 0.942871 2 0.942871H3.37697ZM3.02747 6.60815C3.02747 6.19394 3.36325 5.85815 3.77747 5.85815H13.2219C13.6361 5.85815 13.9719 6.19394 13.9719 6.60815C13.9719 7.02237 13.6361 7.35815 13.2219 7.35815H3.77747C3.36325 7.35815 3.02747 7.02237 3.02747 6.60815ZM3.02747 11.3292C3.02747 10.915 3.36325 10.5792 3.77747 10.5792H13.2219C13.6361 10.5792 13.9719 10.915 13.9719 11.3292C13.9719 11.7434 13.6361 12.0792 13.2219 12.0792H3.77747C3.36325 12.0792 3.02747 11.7434 3.02747 11.3292ZM3.77747 15.3024C3.36325 15.3024 3.02747 15.6382 3.02747 16.0524C3.02747 16.4666 3.36325 16.8024 3.77747 16.8024H13.2219C13.6361 16.8024 13.9719 16.4666 13.9719 16.0524C13.9719 15.6382 13.6361 15.3024 13.2219 15.3024H3.77747Z" fill="#D2D2FF"/>
</svg>
