<svg width="23" height="19" viewBox="0 0 23 19" fill="none" xmlns="http://www.w3.org/2000/svg">
<path opacity="0.5" fill-rule="evenodd" clip-rule="evenodd" d="M3 0C1.34315 0 0 1.34315 0 3V16C0 17.6569 1.34314 19 3 19H19.3529C21.0098 19 22.3529 17.6569 22.3529 16V3C22.3529 1.34315 21.0098 0 19.3529 0H3ZM17.3238 3.23529C17.3238 2.68301 17.7715 2.23529 18.3238 2.23529H19.1179C19.6702 2.23529 20.1179 2.68301 20.1179 3.23529V4.02941C20.1179 4.5817 19.6702 5.02941 19.1179 5.02941H18.3238C17.7715 5.02941 17.3238 4.5817 17.3238 4.02941V3.23529ZM17.3238 9.38235C17.3238 8.83007 17.7715 8.38235 18.3238 8.38235H19.1179C19.6702 8.38235 20.1179 8.83007 20.1179 9.38235V10.1765C20.1179 10.7288 19.6702 11.1765 19.1179 11.1765H18.3238C17.7715 11.1765 17.3238 10.7288 17.3238 10.1765V9.38235ZM3.23552 13.9706C2.68324 13.9706 2.23552 14.4183 2.23552 14.9706V15.7647C2.23552 16.317 2.68324 16.7647 3.23552 16.7647H4.02964C4.58193 16.7647 5.02964 16.317 5.02964 15.7647V14.9706C5.02964 14.4183 4.58193 13.9706 4.02964 13.9706H3.23552ZM18.3238 13.9706C17.7715 13.9706 17.3238 14.4183 17.3238 14.9706V15.7647C17.3238 16.317 17.7715 16.7647 18.3238 16.7647H19.1179C19.6702 16.7647 20.1179 16.317 20.1179 15.7647V14.9706C20.1179 14.4183 19.6702 13.9706 19.1179 13.9706H18.3238ZM3.23552 8.38235C2.68324 8.38235 2.23552 8.83007 2.23552 9.38235V10.1765C2.23552 10.7288 2.68324 11.1765 3.23552 11.1765H4.02964C4.58193 11.1765 5.02964 10.7288 5.02964 10.1765V9.38235C5.02964 8.83007 4.58193 8.38235 4.02964 8.38235H3.23552ZM3.23529 2.23535C2.68301 2.23535 2.23529 2.68307 2.23529 3.23535V4.02947C2.23529 4.58175 2.68301 5.02947 3.23529 5.02947H4.02941C4.5817 5.02947 5.02941 4.58175 5.02941 4.02947V3.23535C5.02941 2.68307 4.5817 2.23535 4.02941 2.23535H3.23529ZM15.2155 8.62842C15.8951 9.01073 15.8951 9.98927 15.2155 10.3716L9.31402 13.6911C8.64742 14.0661 7.82376 13.5844 7.82376 12.8196L7.82376 6.18043C7.82376 5.41561 8.64742 4.93389 9.31402 5.30886L15.2155 8.62842Z" fill="#D2D2FF"/>
</svg>
